<?xml version="1.0" encoding="UTF-8"?>
<!DOCTYPE svg PUBLIC "-//W3C//DTD SVG 1.1//EN" "http://www.w3.org/Graphics/SVG/1.1/DTD/svg11.dtd">
<!-- Creator: CorelDRAW -->
<svg xmlns="http://www.w3.org/2000/svg" xml:space="preserve" width="301px" height="182px" version="1.1" style="shape-rendering:geometricPrecision; text-rendering:geometricPrecision; image-rendering:optimizeQuality; fill-rule:evenodd; clip-rule:evenodd"
viewBox="0 0 301 182"
 xmlns:xlink="http://www.w3.org/1999/xlink"
 xmlns:xodm="http://www.corel.com/coreldraw/odm/2003">
 <defs>
  <style type="text/css">
   <![CDATA[
    .fil1 {fill:#FF9900;fill-rule:nonzero}
    .fil0 {fill:white;fill-rule:nonzero}
   ]]>
  </style>
 </defs>
 <g id="Camada_x0020_1">
  <metadata id="CorelCorpID_0Corel-Layer"/>
  <path class="fil0" d="M84.54 66.21c0,3.73 0.4,6.75 1.1,8.97 0.81,2.22 1.8,4.64 3.2,7.26 0.5,0.8 0.7,1.61 0.7,2.32 0,1 -0.6,2.01 -1.9,3.02l-6.29 4.23c-0.9,0.61 -1.79,0.91 -2.59,0.91 -1,0 -1.99,-0.5 -2.99,-1.41 -1.4,-1.51 -2.59,-3.13 -3.59,-4.74 -1,-1.71 -2,-3.63 -3.1,-5.94 -7.78,9.27 -17.56,13.9 -29.34,13.9 -8.38,0 -15.07,-2.42 -19.95,-7.25 -4.89,-4.84 -7.38,-11.29 -7.38,-19.35 0,-8.57 2.99,-15.52 9.08,-20.76 6.08,-5.24 14.16,-7.86 24.44,-7.86 3.39,0 6.89,0.3 10.58,0.8 3.68,0.51 7.48,1.32 11.47,2.22l0 -7.35c0,-7.66 -1.59,-13 -4.69,-16.13 -3.19,-3.12 -8.58,-4.63 -16.26,-4.63 -3.49,0 -7.08,0.39 -10.77,1.31 -3.7,0.91 -7.28,2.01 -10.78,3.42 -1.59,0.71 -2.79,1.11 -3.49,1.32 -0.7,0.2 -1.2,0.3 -1.59,0.3 -1.4,0 -2.1,-1.01 -2.1,-3.13l0 -4.93c0,-1.62 0.2,-2.82 0.7,-3.53 0.5,-0.71 1.4,-1.41 2.8,-2.12 3.49,-1.81 7.68,-3.32 12.57,-4.54 4.89,-1.31 10.08,-1.91 15.56,-1.91 11.88,0 20.56,2.72 26.15,8.16 5.48,5.45 8.28,13.71 8.28,24.79l0 32.65 0.18 0 0 0zm-40.51 15.31c3.3,0 6.69,-0.6 10.28,-1.81 3.59,-1.21 6.79,-3.42 9.48,-6.45 1.59,-1.91 2.79,-4.03 3.39,-6.45 0.6,-2.41 1,-5.34 1,-8.76l0 -4.24c-2.89,-0.7 -5.98,-1.31 -9.18,-1.71 -3.19,-0.4 -6.29,-0.6 -9.38,-0.6 -6.69,0 -11.57,1.31 -14.87,4.03 -3.29,2.72 -4.88,6.55 -4.88,11.58 0,4.74 1.2,8.27 3.69,10.69 2.39,2.52 5.89,3.72 10.47,3.72zm80.13 10.89c-1.8,0 -3,-0.3 -3.8,-1.01 -0.8,-0.6 -1.49,-2.01 -2.09,-3.93l-23.45 -77.89c-0.6,-2.01 -0.9,-3.33 -0.9,-4.03 0,-1.62 0.8,-2.52 2.39,-2.52l9.78 0c1.9,0 3.2,0.3 3.9,1.01 0.8,0.6 1.39,2.01 1.99,3.93l16.76 66.71 15.57 -66.71c0.5,-2.02 1.1,-3.33 1.89,-3.93 0.8,-0.61 2.19,-1.01 3.99,-1.01l7.99 0c1.89,0 3.19,0.3 3.99,1.01 0.8,0.6 1.49,2.01 1.89,3.93l15.77 67.52 17.26 -67.52c0.6,-2.02 1.3,-3.33 1.99,-3.93 0.81,-0.61 2.1,-1.01 3.9,-1.01l9.28 0c1.59,0 2.49,0.81 2.49,2.52 0,0.5 -0.1,1 -0.2,1.61 -0.1,0.61 -0.3,1.41 -0.7,2.52l-24.04 77.89c-0.6,2.02 -1.3,3.33 -2.1,3.93 -0.79,0.61 -2.09,1.01 -3.79,1.01l-8.58 0c-1.9,0 -3.2,-0.3 -4,-1 -0.8,-0.71 -1.49,-2.02 -1.89,-4.04l-15.46 -65 -15.36 64.9c-0.5,2.02 -1.1,3.33 -1.9,4.04 -0.8,0.7 -2.19,1 -3.99,1l-8.58 0zm128.21 2.72c-5.19,0 -10.38,-0.61 -15.36,-1.81 -4.99,-1.21 -8.89,-2.52 -11.48,-4.03 -1.59,-0.91 -2.69,-1.92 -3.09,-2.82 -0.4,-0.91 -0.6,-1.92 -0.6,-2.82l0 -5.14c0,-2.12 0.8,-3.12 2.29,-3.12 0.6,0 1.2,0.1 1.79,0.3 0.6,0.2 1.5,0.6 2.5,1 3.39,1.51 7.08,2.72 10.97,3.53 4,0.8 7.88,1.2 11.88,1.2 6.29,0 11.17,-1.1 14.56,-3.32 3.4,-2.22 5.19,-5.45 5.19,-9.58 0,-2.81 -0.9,-5.13 -2.69,-7.05 -1.79,-1.92 -5.19,-3.63 -10.08,-5.24l-14.46 -4.54c-7.28,-2.32 -12.67,-5.74 -15.97,-10.28 -3.29,-4.43 -4.98,-9.37 -4.98,-14.61 0,-4.23 0.9,-7.96 2.69,-11.19 1.79,-3.22 4.19,-6.04 7.18,-8.26 2.99,-2.32 6.39,-4.03 10.38,-5.24 3.99,-1.2 8.18,-1.7 12.57,-1.7 2.2,0 4.49,0.09 6.69,0.39 2.29,0.3 4.38,0.71 6.48,1.11 2,0.51 3.9,1.01 5.69,1.61 1.8,0.61 3.2,1.21 4.2,1.82 1.4,0.8 2.39,1.61 2.99,2.51 0.6,0.81 0.9,1.92 0.9,3.33l0 4.74c0,2.12 -0.8,3.22 -2.29,3.22 -0.81,0 -2.1,-0.4 -3.8,-1.2 -5.69,-2.62 -12.07,-3.94 -19.15,-3.94 -5.69,0 -10.18,0.91 -13.27,2.82 -3.1,1.92 -4.69,4.84 -4.69,8.97 0,2.82 1,5.24 2.99,7.16 2,1.91 5.69,3.83 10.98,5.54l14.17 4.54c7.18,2.32 12.37,5.54 15.46,9.67 3.09,4.14 4.59,8.87 4.59,14.11 0,4.33 -0.9,8.26 -2.6,11.69 -1.79,3.43 -4.19,6.45 -7.28,8.87 -3.09,2.52 -6.78,4.33 -11.07,5.64 -4.51,1.41 -9.19,2.12 -14.28,2.12z"/>
  <path class="fil1" d="M271.23 144.11c-32.83,24.48 -80.52,37.48 -121.53,37.48 -57.47,0 -109.26,-21.46 -148.37,-57.13 -3.1,-2.82 -0.3,-6.65 3.39,-4.43 42.31,24.78 94.49,39.8 148.47,39.8 36.42,0 76.43,-7.66 113.24,-23.38 5.49,-2.52 10.18,3.63 4.8,7.66zm13.66 -15.72c-4.19,-5.45 -27.73,-2.62 -38.41,-1.32 -3.19,0.4 -3.69,-2.41 -0.8,-4.53 18.76,-13.3 49.59,-9.48 53.18,-5.04 3.59,4.54 -1,35.67 -18.55,50.58 -2.7,2.32 -5.29,1.11 -4.1,-1.91 4,-9.97 12.88,-32.45 8.68,-37.78z"/>
 </g>
</svg>
