<svg width="16" height="16" viewBox="0 0 16 16" fill="none" xmlns="http://www.w3.org/2000/svg">
<g clip-path="url(#clip0_423_1652)">
<path d="M12.25 0H3.75C1.67893 0 0 1.67893 0 3.75V12.25C0 14.3211 1.67893 16 3.75 16H12.25C14.3211 16 16 14.3211 16 12.25V3.75C16 1.67893 14.3211 0 12.25 0Z" fill="url(#paint0_linear_423_1652)"/>
<g filter="url(#filter0_d_423_1652)">
<path d="M8.24813 12.2598C10.1029 12.2598 11.2206 11.3516 11.2206 9.85375C11.2206 8.72144 10.4231 7.90175 9.23894 7.77194V7.72481C10.1089 7.58325 10.7916 6.77531 10.7916 5.87306C10.7916 4.58744 9.77669 3.75 8.23 3.75H4.75V12.2598H8.24813ZM6.10331 4.82919H7.90375C8.8825 4.82919 9.43831 5.26562 9.43831 6.05587C9.43831 6.89919 8.79188 7.37094 7.61981 7.37094H6.10331V4.82919ZM6.10331 11.1806V8.37944H7.89162C9.1725 8.37944 9.83706 8.85119 9.83706 9.77119C9.83706 10.6911 9.19063 11.1806 7.97019 11.1806H6.10331Z" fill="url(#paint1_linear_423_1652)"/>
<path d="M8.24813 12.2598C10.1029 12.2598 11.2206 11.3516 11.2206 9.85375C11.2206 8.72144 10.4231 7.90175 9.23894 7.77194V7.72481C10.1089 7.58325 10.7916 6.77531 10.7916 5.87306C10.7916 4.58744 9.77669 3.75 8.23 3.75H4.75V12.2598H8.24813ZM6.10331 4.82919H7.90375C8.8825 4.82919 9.43831 5.26562 9.43831 6.05587C9.43831 6.89919 8.79188 7.37094 7.61981 7.37094H6.10331V4.82919ZM6.10331 11.1806V8.37944H7.89162C9.1725 8.37944 9.83706 8.85119 9.83706 9.77119C9.83706 10.6911 9.19063 11.1806 7.97019 11.1806H6.10331Z" stroke="white" stroke-width="0.125"/>
</g>
</g>
<defs>
<filter id="filter0_d_423_1652" x="3.6875" y="2.9375" width="8.5957" height="10.6348" filterUnits="userSpaceOnUse" color-interpolation-filters="sRGB">
<feFlood flood-opacity="0" result="BackgroundImageFix"/>
<feColorMatrix in="SourceAlpha" type="matrix" values="0 0 0 0 0 0 0 0 0 0 0 0 0 0 0 0 0 0 127 0" result="hardAlpha"/>
<feOffset dy="0.25"/>
<feGaussianBlur stdDeviation="0.5"/>
<feColorMatrix type="matrix" values="0 0 0 0 0 0 0 0 0 0 0 0 0 0 0 0 0 0 0.15 0"/>
<feBlend mode="normal" in2="BackgroundImageFix" result="effect1_dropShadow_423_1652"/>
<feBlend mode="normal" in="SourceGraphic" in2="effect1_dropShadow_423_1652" result="shape"/>
</filter>
<linearGradient id="paint0_linear_423_1652" x1="0" y1="0" x2="16" y2="16" gradientUnits="userSpaceOnUse">
<stop stop-color="#9013FE"/>
<stop offset="1" stop-color="#6B11F4"/>
</linearGradient>
<linearGradient id="paint1_linear_423_1652" x1="5.36206" y1="4.31012" x2="9.28381" y2="10.9428" gradientUnits="userSpaceOnUse">
<stop stop-color="white"/>
<stop offset="1" stop-color="#F1E5FC"/>
</linearGradient>
<clipPath id="clip0_423_1652">
<rect width="16" height="16" fill="white"/>
</clipPath>
</defs>
</svg>
