<svg width="16" height="16" viewBox="0 0 16 16" fill="none" xmlns="http://www.w3.org/2000/svg">
<g clip-path="url(#clip0_423_1549)">
<path d="M12.25 0H3.75C1.67893 0 0 1.67893 0 3.75V12.25C0 14.3211 1.67893 16 3.75 16H12.25C14.3211 16 16 14.3211 16 12.25V3.75C16 1.67893 14.3211 0 12.25 0Z" fill="#0277BD"/>
<path d="M3.35956 6.41569L3.53844 8.41206H8.006V6.41569H3.35956ZM8.00594 2.375H3L3.1815 4.37138H8.00594V2.375ZM8.00594 13.6776V11.6005L7.99719 11.6028L5.77381 11.0025L5.63169 9.41025H3.62762L3.90731 12.5449L7.99675 13.6801L8.00594 13.6776Z" fill="#EBEBEB"/>
<path d="M10.4573 8.41206L10.2256 11.0012L7.99902 11.6022V13.6791L12.0917 12.5449L12.1217 12.2076L12.5908 6.95181L12.6395 6.41569L13 2.375H7.99902V4.37138H10.8121L10.6305 6.41569H7.99902V8.41206H10.4573Z" fill="white"/>
</g>
<defs>
<clipPath id="clip0_423_1549">
<rect width="16" height="16" fill="white"/>
</clipPath>
</defs>
</svg>
