<svg width="16" height="16" viewBox="0 0 16 16" fill="none" xmlns="http://www.w3.org/2000/svg">
<g clip-path="url(#clip0_423_1513)">
<path d="M12.25 0H3.75C1.67893 0 0 1.67893 0 3.75V12.25C0 14.3211 1.67893 16 3.75 16H12.25C14.3211 16 16 14.3211 16 12.25V3.75C16 1.67893 14.3211 0 12.25 0Z" fill="#092E20"/>
<path d="M7.04306 3.1875H8.8315V11.4656C7.91406 11.6398 7.2405 11.7095 6.50894 11.7095C4.32556 11.7094 3.1875 10.7224 3.1875 8.82944C3.1875 7.00612 4.39531 5.82169 6.265 5.82169C6.55531 5.82169 6.77594 5.84481 7.04306 5.9145V3.1875ZM7.04306 7.35444C6.83406 7.28487 6.65987 7.26162 6.43925 7.26162C5.53344 7.26162 5.01075 7.81906 5.01075 8.7945C5.01075 9.74688 5.51019 10.2694 6.42763 10.2694C6.62494 10.2694 6.78763 10.2578 7.04306 10.2231V7.35444Z" fill="white"/>
<path d="M11.6768 5.94937V10.0951C11.6768 11.5236 11.5723 12.2087 11.2588 12.8011C10.9684 13.3702 10.5851 13.7301 9.79545 14.125L8.13477 13.3352C8.92445 12.9637 9.3077 12.6386 9.55152 12.1391C9.80708 11.6281 9.88845 11.0358 9.88845 9.47968V5.9493L11.6768 5.94937ZM9.88845 3.19699H11.6768V5.03187H9.88845V3.19699Z" fill="white"/>
</g>
<defs>
<clipPath id="clip0_423_1513">
<rect width="16" height="16" fill="white"/>
</clipPath>
</defs>
</svg>
