<svg width="16" height="16" viewBox="0 0 16 16" fill="none" xmlns="http://www.w3.org/2000/svg">
<g clip-path="url(#clip0_423_1523)">
<path d="M12.25 0H3.75C1.67893 0 0 1.67893 0 3.75V12.25C0 14.3211 1.67893 16 3.75 16H12.25C14.3211 16 16 14.3211 16 12.25V3.75C16 1.67893 14.3211 0 12.25 0Z" fill="#F03C2E"/>
<mask id="mask0_423_1523" style="mask-type:luminance" maskUnits="userSpaceOnUse" x="1" y="1" width="14" height="14">
<path d="M1.75 1.75H14.25V14.25H1.75V1.75Z" fill="white"/>
</mask>
<g mask="url(#mask0_423_1523)">
<path d="M14.014 7.44338L8.55655 1.98594C8.44403 1.87329 8.30061 1.79658 8.14445 1.7655C7.9883 1.73443 7.82644 1.75039 7.67936 1.81138C7.58174 1.85189 7.49304 1.9112 7.4183 1.98594L6.28549 3.11875L7.72299 4.55625C8.05736 4.43906 8.44017 4.51913 8.70655 4.78556C8.83337 4.9126 8.92191 5.07274 8.96204 5.24771C9.00217 5.42267 8.99227 5.60539 8.93349 5.775L10.319 7.16056C10.6542 7.04494 11.0409 7.1195 11.3085 7.38788C11.4425 7.52184 11.5338 7.69256 11.5707 7.87843C11.6077 8.0643 11.5887 8.25696 11.516 8.432C11.4187 8.66669 11.2322 8.85312 10.9974 8.95031C10.7627 9.0475 10.499 9.04751 10.2642 8.95031C10.148 8.90213 10.0424 8.83156 9.95342 8.74256C9.67217 8.46131 9.60267 8.04725 9.74486 7.70075L8.45267 6.40856V9.809C8.54648 9.8554 8.6322 9.9166 8.70655 9.99025C8.88619 10.1699 8.98711 10.4135 8.98711 10.6676C8.98711 10.9216 8.88619 11.1653 8.70655 11.3449C8.52691 11.5246 8.28326 11.6255 8.02921 11.6255C7.77515 11.6255 7.5315 11.5246 7.35186 11.3449C7.21779 11.211 7.12648 11.0403 7.08947 10.8545C7.05247 10.6686 7.07144 10.476 7.14399 10.3009C7.19216 10.1847 7.2628 10.0791 7.35186 9.99025C7.44442 9.89806 7.54717 9.82812 7.66555 9.78125V6.34919C7.54808 6.30119 7.44142 6.23015 7.35186 6.14025C7.21737 6.0059 7.12593 5.83454 7.08919 5.64801C7.05246 5.46149 7.0721 5.26825 7.14561 5.09294L5.72767 3.67587L1.98549 7.41412C1.87283 7.5267 1.7961 7.67017 1.765 7.82637C1.73391 7.98257 1.74985 8.14448 1.8108 8.29163C1.85133 8.3893 1.91069 8.47805 1.98549 8.55281L7.4433 14.0098C7.51804 14.0845 7.60674 14.1439 7.70436 14.1844C7.90164 14.2659 8.12321 14.2659 8.32049 14.1844C8.41811 14.1439 8.50681 14.0845 8.58155 14.0098L14.014 8.586C14.0888 8.51126 14.1481 8.42251 14.1886 8.32482C14.2291 8.22714 14.25 8.12243 14.25 8.01669C14.25 7.91093 14.2291 7.80621 14.1886 7.70852C14.1481 7.61082 14.0888 7.52206 14.014 7.44731" fill="white"/>
</g>
</g>
<defs>
<clipPath id="clip0_423_1523">
<rect width="16" height="16" fill="white"/>
</clipPath>
</defs>
</svg>
