<svg width="16" height="16" viewBox="0 0 16 16" fill="none" xmlns="http://www.w3.org/2000/svg">
<g clip-path="url(#clip0_423_1662)">
<path d="M12.25 0H3.75C1.67893 0 0 1.67893 0 3.75V12.25C0 14.3211 1.67893 16 3.75 16H12.25C14.3211 16 16 14.3211 16 12.25V3.75C16 1.67893 14.3211 0 12.25 0Z" fill="#242938"/>
<path d="M8.00006 1.875C4.54869 1.875 1.75 4.67313 1.75 8.12506C1.75 10.8865 3.54081 13.2293 6.02419 14.0557C6.3365 14.1136 6.45119 13.9201 6.45119 13.7551C6.45119 13.606 6.44538 13.1137 6.44269 12.5914C4.70394 12.9695 4.33706 11.854 4.33706 11.854C4.05269 11.1316 3.64306 10.9395 3.64306 10.9395C3.076 10.5516 3.68581 10.5596 3.68581 10.5596C4.31344 10.6036 4.64394 11.2036 4.64394 11.2036C5.20138 12.1591 6.10606 11.8829 6.46269 11.7232C6.51881 11.3192 6.68075 11.0435 6.8595 10.8874C5.47131 10.7294 4.012 10.1934 4.012 7.79862C4.012 7.11625 4.25613 6.55869 4.65594 6.121C4.591 5.96356 4.37706 5.32788 4.71644 4.467C4.71644 4.467 5.24131 4.29906 6.43569 5.10763C6.93425 4.96919 7.46888 4.89975 8.00006 4.89738C8.53119 4.89975 9.06631 4.96919 9.56575 5.10769C10.7587 4.299 11.2828 4.46706 11.2828 4.46706C11.623 5.32787 11.409 5.96362 11.3441 6.121C11.7448 6.55869 11.9873 7.11625 11.9873 7.79862C11.9873 10.1992 10.5252 10.7278 9.13344 10.8824C9.35762 11.0764 9.55737 11.4568 9.55737 12.0399C9.55737 12.8761 9.55013 13.5492 9.55013 13.7551C9.55013 13.9214 9.66263 14.1163 9.97944 14.0549C12.4614 13.2275 14.25 10.8856 14.25 8.12506C14.25 4.67319 11.4517 1.875 8.00006 1.875ZM4.09088 10.7783C4.07713 10.8094 4.02825 10.8187 3.98375 10.7974C3.93838 10.777 3.91294 10.7346 3.92762 10.7035C3.94106 10.6715 3.99006 10.6626 4.03525 10.6841C4.08069 10.7044 4.10656 10.7472 4.09088 10.7783ZM4.39831 11.0526C4.3685 11.0803 4.31019 11.0674 4.27069 11.0238C4.22981 10.9802 4.22213 10.9219 4.25238 10.8939C4.28306 10.8663 4.33962 10.8792 4.38056 10.9228C4.42144 10.9669 4.42944 11.0247 4.39831 11.0526ZM4.60919 11.4036C4.57088 11.4302 4.50825 11.4053 4.46956 11.3497C4.43125 11.2941 4.43125 11.2275 4.47038 11.2008C4.50919 11.1741 4.57088 11.1981 4.61013 11.2533C4.64831 11.3098 4.64831 11.3764 4.60919 11.4036ZM4.96588 11.8101C4.93163 11.8479 4.85869 11.8377 4.80525 11.7862C4.75063 11.7358 4.73538 11.6643 4.76975 11.6265C4.80444 11.5886 4.87781 11.5993 4.93162 11.6504C4.98587 11.7007 5.00244 11.7728 4.96588 11.8101ZM5.42688 11.9473C5.41175 11.9963 5.3415 12.0186 5.27069 11.9978C5.20006 11.9763 5.15375 11.919 5.16806 11.8695C5.18275 11.8203 5.25331 11.7971 5.32463 11.8193C5.39525 11.8406 5.44156 11.8976 5.42688 11.9473ZM5.9515 12.0056C5.95325 12.0571 5.89325 12.0998 5.81894 12.1007C5.74419 12.1024 5.68375 12.0607 5.68294 12.01C5.68294 11.9579 5.74162 11.9156 5.81631 11.9144C5.89069 11.9129 5.9515 11.9543 5.9515 12.0056ZM6.46688 11.9858C6.47581 12.0361 6.42419 12.0877 6.35038 12.1015C6.27781 12.1147 6.21062 12.0837 6.20144 12.0338C6.19244 11.9823 6.245 11.9306 6.31744 11.9172C6.39138 11.9044 6.4575 11.9347 6.46688 11.9858Z" fill="white"/>
</g>
<defs>
<clipPath id="clip0_423_1662">
<rect width="16" height="16" fill="white"/>
</clipPath>
</defs>
</svg>
