<svg width="16" height="16" viewBox="0 0 16 16" fill="none" xmlns="http://www.w3.org/2000/svg">
<g clip-path="url(#clip0_446_1508)">
<path d="M12.25 0H3.75C1.67893 0 0 1.67893 0 3.75V12.25C0 14.3211 1.67893 16 3.75 16H12.25C14.3211 16 16 14.3211 16 12.25V3.75C16 1.67893 14.3211 0 12.25 0Z" fill="#242938"/>
<path d="M2.60225 12.6893H4.59088V7.85969L1.75 5.72906V11.837C1.75 12.3086 2.13213 12.6893 2.60225 12.6893Z" fill="#4285F4"/>
<path d="M11.4092 12.6893H13.3979C13.8694 12.6893 14.2501 12.3072 14.2501 11.837V5.72906L11.4092 7.85969" fill="#34A853"/>
<path d="M11.4092 4.1665V7.85969L14.2501 5.72907V4.59257C14.2501 3.53863 13.047 2.93775 12.2047 3.56988" fill="#FBBC04"/>
<path d="M4.59082 7.85969V4.16657L7.99988 6.72338L11.4089 4.1665V7.85969L7.99988 10.4166" fill="#EA4335"/>
<path d="M1.75 4.59269V5.729L4.59088 7.85969V4.16656L3.79544 3.56994C2.95169 2.93781 1.75 3.53869 1.75 4.59269Z" fill="#C5221F"/>
</g>
<defs>
<clipPath id="clip0_446_1508">
<rect width="16" height="16" fill="white"/>
</clipPath>
</defs>
</svg>
