<svg width="16" height="16" viewBox="0 0 16 16" fill="none" xmlns="http://www.w3.org/2000/svg">
<g clip-path="url(#clip0_423_1613)">
<path d="M12.25 0H3.75C1.67893 0 0 1.67893 0 3.75V12.25C0 14.3211 1.67893 16 3.75 16H12.25C14.3211 16 16 14.3211 16 12.25V3.75C16 1.67893 14.3211 0 12.25 0Z" fill="#F4F2ED"/>
<path d="M5.37186 12.4954L6.90498 13.3466H9.22348L11.3924 11.7182L12.3646 9.1645L10.1209 6.46281L9.48523 4.94543L6.38148 5.05643L6.41886 5.90768L5.82054 7.01793L4.88567 8.83143L4.69873 10.3488L5.37186 12.4954Z" fill="#ECEFF1"/>
<path d="M11.6916 7.16601C11.0933 6.31476 10.6072 5.79663 10.3454 4.72338C10.0837 3.65013 10.4202 3.9462 10.1959 3.02088C10.0837 2.53982 9.89667 2.2067 9.70974 1.94763C9.48536 1.68857 9.22361 1.54051 9.07399 1.50351C8.73749 1.31851 7.95217 1.02238 6.97992 1.54051C5.97024 2.05863 6.08242 3.16894 6.26942 5.42657C6.26942 5.57457 6.23199 5.7597 6.15724 5.9077C6.00767 6.24082 5.74586 6.53682 5.52155 6.79595C5.25974 7.16601 4.99799 7.53613 4.81105 7.9432C4.3623 8.79445 3.95092 9.8677 4.06311 10.2748C4.25011 10.2378 6.60599 13.7908 6.60599 13.8648C6.75555 13.8278 7.39124 13.8278 7.95217 13.8278C8.73749 13.7908 9.18617 13.7538 9.82192 13.9018C9.82192 13.7908 9.78449 13.6797 9.78449 13.5687C9.78449 13.3466 9.82192 13.1616 9.8593 12.9025C9.89667 12.7174 9.93411 12.5324 9.97149 12.3104C9.59755 12.6434 8.92442 13.0136 8.28873 13.1246C7.7278 13.2356 6.79292 13.0506 6.34417 12.4954C6.38161 12.4954 6.45636 12.4954 6.4938 12.4584C6.60599 12.4214 6.71817 12.3844 6.75555 12.3104C6.86774 12.1253 6.79292 11.9403 6.71817 11.8293C6.64336 11.7182 6.08242 11.3111 5.82067 11.0891C5.55892 10.867 5.40936 10.7559 5.25974 10.6079L4.96061 10.3118C4.8858 10.2378 4.84842 10.1638 4.81105 10.1268C4.73624 9.94176 4.69886 9.7197 4.73624 9.42363C4.77361 9.01651 4.92317 8.68338 5.11017 8.31332C5.18499 8.16526 5.37192 7.86919 5.37192 7.86919C5.37192 7.86919 4.73624 9.42363 5.0728 9.90476C5.0728 9.90476 5.11017 9.42363 5.25974 8.94251C5.37192 8.60938 5.55892 8.12826 5.7833 7.86919C6.00767 7.61013 6.56855 6.64788 6.60599 6.0557C6.60599 5.79663 6.64336 5.53757 6.64336 5.35257C6.4938 5.20445 9.11142 4.83445 9.26098 5.24151C9.29836 5.38957 9.82192 6.72188 10.121 7.42507C10.2706 7.7582 10.4576 8.05426 10.5698 8.42432C10.682 8.83145 10.7567 9.38657 10.7567 9.94176C10.7567 10.0528 10.7567 10.2378 10.7194 10.4229C10.7942 10.4229 12.2525 8.86845 10.5324 7.57313C10.5324 7.57313 11.5794 8.05426 11.6169 9.01651C11.6542 9.7937 11.3177 10.4229 11.2429 10.5339C11.2803 10.5339 12.0282 10.867 12.0655 10.867C12.2152 10.867 12.5143 10.7559 12.5143 10.7559C12.5517 10.6449 12.6639 10.3488 12.6639 10.2378C12.9257 9.38657 12.2899 8.01726 11.6916 7.16601Z" fill="#263238"/>
<path d="M6.94218 4.72338C7.21068 4.72338 7.4283 4.39194 7.4283 3.98319C7.4283 3.57438 7.21068 3.243 6.94218 3.243C6.67368 3.243 6.45605 3.57438 6.45605 3.98313C6.45605 4.39188 6.67374 4.72338 6.94218 4.72338ZM8.62493 4.79738C8.97605 4.79738 9.26068 4.41625 9.26068 3.94613C9.26068 3.476 8.97605 3.095 8.62493 3.095C8.27387 3.095 7.98924 3.47613 7.98924 3.94625C7.98924 4.41638 8.27387 4.7975 8.62493 4.7975" fill="#ECEFF1"/>
<path d="M7.21395 4.03382C7.18289 3.79051 7.04139 3.60776 6.89795 3.62569C6.75451 3.64363 6.66345 3.85544 6.69458 4.09882C6.72564 4.34213 6.86708 4.52488 7.01051 4.50694C7.15395 4.48894 7.24501 4.27713 7.21395 4.03382ZM8.58776 4.57532C8.79426 4.57532 8.9617 4.35994 8.9617 4.09419C8.9617 3.82851 8.79426 3.61307 8.58776 3.61307C8.3812 3.61307 8.21376 3.82851 8.21376 4.09419C8.21376 4.35988 8.3812 4.57532 8.58776 4.57532Z" fill="#212121"/>
<path d="M13.5612 12.2363C13.4117 12.1623 13.1499 12.0512 12.9255 11.7182C12.8134 11.5331 12.8507 11.015 12.6637 10.7929C12.5516 10.6449 12.402 10.7189 12.3646 10.7189C12.0281 10.7929 11.2427 11.3111 10.7192 10.7189C10.6444 10.6449 10.5322 10.5339 10.3453 10.5339C10.1583 10.5339 10.0836 10.6079 10.0087 10.7559C9.93393 10.904 9.93393 11.015 9.93393 11.3851C9.93393 11.6812 9.93393 12.0142 9.89656 12.2733C9.82175 12.9025 9.70962 13.2726 9.70962 13.6427C9.70962 14.0498 9.82175 14.3089 9.97137 14.4199C10.0836 14.5309 10.2705 14.6049 10.6819 14.6049C11.0932 14.6049 11.3549 14.4569 11.6167 14.1978C11.8037 14.0128 11.9532 13.9387 12.4768 13.5687C12.8881 13.3096 13.5239 12.9765 13.636 12.8655C13.7108 12.7915 13.823 12.7544 13.823 12.5324C13.823 12.3474 13.6734 12.2733 13.5612 12.2363ZM6.04493 12.3474C5.671 11.7552 5.63356 11.6442 5.37181 11.2741C5.14743 10.904 4.66131 10.2008 4.36218 10.2008C4.13781 10.2008 4.02562 10.3118 3.87606 10.4599C3.72643 10.6079 3.57687 10.941 3.31512 11.1261C3.09075 11.3111 2.45506 11.2741 2.3055 11.4961C2.15593 11.7182 2.45506 12.0513 2.45506 12.6064C2.45506 12.8285 2.26806 12.9765 2.23068 13.1246C2.19331 13.3096 2.15587 13.4206 2.23068 13.5687C2.38025 13.7907 2.56725 13.8647 3.83862 14.1238C4.51175 14.2719 5.14743 14.6419 5.55881 14.679C5.97012 14.716 6.68062 14.679 6.68062 13.6797C6.71806 13.0876 6.3815 12.9395 6.04493 12.3474ZM6.75543 5.64862C6.53106 5.50056 6.34406 5.3525 6.34406 5.1305C6.34406 4.90844 6.49368 4.83437 6.71806 4.64937C6.75543 4.61231 7.16675 4.24225 7.57812 4.24225C7.9895 4.24225 8.47556 4.50131 8.66256 4.57537C8.99912 4.64931 9.33562 4.72337 9.29825 4.98244C9.26087 5.3525 9.2235 5.42656 8.8495 5.61162C8.58775 5.68562 8.10162 6.09275 7.76506 6.09275C7.6155 6.09275 7.39112 6.09275 7.24156 6.05569C7.12937 6.01869 6.94237 5.83362 6.75543 5.64862Z" fill="#FFC107"/>
<path d="M6.68063 5.3525C6.75545 5.42656 6.86763 5.50062 6.97982 5.53756C7.05457 5.57456 7.16676 5.61162 7.16676 5.61162H7.50332C7.69032 5.61162 7.95207 5.53756 8.21382 5.38956C8.47557 5.2785 8.51301 5.2045 8.69995 5.1305C8.88695 5.01944 9.07388 4.90844 8.99913 4.87144C8.92432 4.83437 8.84951 4.87144 8.58776 5.01944C8.36338 5.1675 8.17645 5.2415 7.95207 5.35256C7.83988 5.38956 7.69032 5.46356 7.57813 5.46356H7.24157C7.12938 5.46356 7.05457 5.42656 6.94238 5.38956C6.86763 5.3525 6.8302 5.3155 6.79282 5.3155C6.71807 5.2785 6.56845 5.1305 6.4937 5.09344C6.4937 5.09344 6.41888 5.09344 6.45626 5.1305L6.68063 5.3525ZM7.80251 4.53831C7.83988 4.61231 7.9147 4.61231 7.95207 4.64931C7.98945 4.68631 8.02688 4.68637 8.02688 4.68637C8.06426 4.64931 8.02688 4.57531 7.98945 4.57531C7.98945 4.50131 7.80251 4.50131 7.80251 4.53831ZM7.2042 4.61231C7.2042 4.64937 7.27895 4.68637 7.27895 4.64937C7.31638 4.61231 7.35376 4.57531 7.39113 4.57531C7.46595 4.53831 7.42851 4.50131 7.31638 4.50131C7.24157 4.53831 7.24157 4.57531 7.2042 4.61231Z" fill="#634703"/>
<path d="M10.8312 11.1631V11.2741C10.906 11.4221 11.093 11.4591 11.2425 11.4591C11.4669 11.4591 11.6913 11.3111 11.8035 11.1631C11.8035 11.1261 11.8408 11.089 11.8783 11.052C11.953 10.941 11.9905 10.867 12.0278 10.8299C12.0278 10.8299 11.9905 10.7929 11.9905 10.7559C11.953 10.6819 11.8408 10.6079 11.6913 10.5709C11.5791 10.5339 11.3921 10.4969 11.3173 10.4969C10.9808 10.4599 10.7938 10.5709 10.6816 10.6819C10.6816 10.6819 10.719 10.6819 10.719 10.7189C10.7938 10.7929 10.8312 10.867 10.8312 10.978C10.8686 11.052 10.8312 11.089 10.8312 11.1631Z" fill="#455A64"/>
</g>
<defs>
<clipPath id="clip0_423_1613">
<rect width="16" height="16" fill="white"/>
</clipPath>
</defs>
</svg>
