<svg width="16" height="16" viewBox="0 0 16 16" fill="none" xmlns="http://www.w3.org/2000/svg">
<g clip-path="url(#clip0_423_1584)">
<path d="M12.25 0H3.75C1.67893 0 0 1.67893 0 3.75V12.25C0 14.3211 1.67893 16 3.75 16H12.25C14.3211 16 16 14.3211 16 12.25V3.75C16 1.67893 14.3211 0 12.25 0Z" fill="#F4F2ED"/>
<mask id="mask0_423_1584" style="mask-type:luminance" maskUnits="userSpaceOnUse" x="2" y="2" width="12" height="12">
<path d="M2.375 2.375H13.625V13.625H2.375V2.375Z" fill="white"/>
</mask>
<g mask="url(#mask0_423_1584)">
<path fill-rule="evenodd" clip-rule="evenodd" d="M12.7376 11.1381C12.1258 11.1211 11.6511 11.1838 11.2533 11.3512C11.1387 11.3972 10.9549 11.3972 10.9398 11.5414C11.001 11.6019 11.0084 11.7009 11.0621 11.7848C11.1538 11.9369 11.3146 12.1419 11.4599 12.2483L11.9495 12.5982C12.2479 12.7805 12.5845 12.8871 12.8752 13.0696C13.0436 13.1761 13.2118 13.3129 13.3802 13.4271C13.466 13.4879 13.5179 13.587 13.6251 13.6248V13.6018C13.5716 13.5336 13.5561 13.4348 13.5028 13.3584L13.273 13.1381C13.0513 12.8416 12.7757 12.5828 12.4773 12.3701C12.2325 12.2028 11.6971 11.9748 11.5976 11.6936L11.5825 11.6765C11.7506 11.6595 11.9495 11.6003 12.1103 11.5547C12.3706 11.4865 12.6076 11.5015 12.8752 11.4331L13.2427 11.3266V11.2584C13.105 11.1216 13.0055 10.9391 12.8603 10.8099C12.4701 10.4754 12.0414 10.1483 11.5976 9.87463C11.3605 9.72263 11.0543 9.62357 10.8019 9.49457C10.7098 9.44888 10.557 9.42607 10.5035 9.35007C10.3655 9.18307 10.2891 8.96232 10.1897 8.76451L9.5624 7.44151C9.42471 7.14495 9.34034 6.84838 9.17227 6.5747C8.38409 5.28201 7.52702 4.49895 6.21102 3.73082C5.92809 3.57113 5.59146 3.50245 5.23352 3.41895L4.65977 3.38832C4.53715 3.33513 4.41483 3.19057 4.30771 3.12207C3.87158 2.84832 2.74683 2.25532 2.42521 3.03688C2.21865 3.53107 2.7314 4.01763 2.90546 4.2687C3.03577 4.44357 3.20384 4.6412 3.2959 4.83895C3.34734 4.96813 3.36452 5.10513 3.41821 5.24201C3.54046 5.57651 3.65534 5.94926 3.81602 6.26113C3.90177 6.42082 3.99184 6.58832 4.09896 6.7327C4.16021 6.81788 4.2674 6.85438 4.29021 6.9912C4.18302 7.14338 4.17565 7.37126 4.1144 7.56163C3.83884 8.42088 3.94602 9.48538 4.33615 10.118C4.45877 10.308 4.74771 10.7264 5.13977 10.5666C5.48409 10.4297 5.40727 9.99632 5.50671 9.61607C5.52984 9.52495 5.51446 9.46407 5.56021 9.40307V9.42013L5.87402 10.0512C6.11121 10.4238 6.52452 10.8116 6.86865 11.0703C7.05215 11.2072 7.19758 11.4431 7.42702 11.5266V11.5036H7.41196C7.36596 11.4354 7.29702 11.4047 7.23584 11.3515C7.09815 11.2147 6.94515 11.0473 6.83796 10.8953C6.51677 10.4696 6.23383 9.99801 5.98121 9.51145C5.85865 9.27576 5.75146 9.0172 5.65233 8.78151C5.60602 8.6902 5.60602 8.55313 5.52971 8.50782C5.41477 8.67482 5.24677 8.8197 5.16221 9.02488C5.01677 9.35176 5.00171 9.75482 4.94821 10.1731C4.91734 10.1807 4.93102 10.1731 4.91734 10.1901C4.67277 10.1294 4.5884 9.8782 4.49671 9.66551C4.26721 9.12563 4.22877 8.25882 4.42771 7.63526C4.48121 7.47557 4.71102 6.9737 4.61927 6.82163C4.57302 6.67713 4.42034 6.59363 4.33596 6.47945C4.23652 6.33495 4.12971 6.15257 4.06077 5.99288C3.87727 5.56682 3.78552 5.09557 3.5864 4.66976C3.49434 4.47201 3.33384 4.26663 3.20365 4.08432C3.05821 3.87895 2.8979 3.73438 2.78302 3.4912C2.74477 3.40601 2.69127 3.2707 2.75246 3.17932C2.76758 3.11851 2.7984 3.09413 2.85934 3.08051C2.95871 2.99526 3.24209 3.10332 3.34152 3.14863C3.62446 3.26282 3.86165 3.3692 4.09884 3.5287C4.20602 3.6047 4.3209 3.74926 4.45859 3.78745H4.61946C4.86434 3.84057 5.13959 3.80445 5.36884 3.87263C5.77446 4.00213 6.14158 4.19201 6.47083 4.39751C7.47302 5.02863 8.29959 5.92588 8.8579 6.9982C8.94965 7.17307 8.9879 7.33276 9.07227 7.51526C9.23315 7.88801 9.43209 8.26807 9.5924 8.63326C9.75327 8.99063 9.90621 9.35588 10.1357 9.65238C10.2506 9.81207 10.7095 9.89557 10.916 9.97926C11.0691 10.0474 11.3061 10.1088 11.4441 10.1923C11.7041 10.352 11.9643 10.5345 12.209 10.7094C12.3312 10.8004 12.714 10.9906 12.7368 11.1423L12.7376 11.1381ZM4.93496 4.53045C4.82928 4.52954 4.72393 4.54231 4.62152 4.56845V4.58551H4.63658C4.69783 4.7072 4.80502 4.79088 4.88146 4.89738L5.05759 5.26238L5.07271 5.24538C5.17984 5.16938 5.23352 5.0477 5.23352 4.86538C5.18759 4.8122 5.18002 4.75882 5.14177 4.70563C5.09584 4.62963 4.9964 4.59145 4.93496 4.53082V4.53045Z" fill="#00678C"/>
</g>
</g>
<defs>
<clipPath id="clip0_423_1584">
<rect width="16" height="16" fill="white"/>
</clipPath>
</defs>
</svg>
