<svg width="16" height="16" viewBox="0 0 16 16" fill="none" xmlns="http://www.w3.org/2000/svg">
<g clip-path="url(#clip0_423_1658)">
<path d="M12.25 0H3.75C1.67893 0 0 1.67893 0 3.75V12.25C0 14.3211 1.67893 16 3.75 16H12.25C14.3211 16 16 14.3211 16 12.25V3.75C16 1.67893 14.3211 0 12.25 0Z" fill="#009639"/>
<path d="M12.2086 13.3125C12.0636 13.3126 11.9201 13.2841 11.7861 13.2287C11.6521 13.1732 11.5304 13.0919 11.4279 12.9893L4.89525 6.45669V12.2088C4.89525 12.8184 4.40112 13.3125 3.79137 13.3125C3.182 13.3125 2.6875 12.8184 2.6875 12.2088V3.79175C2.6875 3.34488 2.95688 2.94269 3.36925 2.77188C3.57088 2.68809 3.79286 2.66611 4.00702 2.7087C4.22117 2.7513 4.41784 2.85656 4.57206 3.01113L11.1047 9.54375V3.79175C11.1047 3.182 11.5989 2.688 12.2086 2.688C12.8184 2.688 13.3125 3.18194 13.3125 3.79169V12.2088C13.3125 12.6551 13.0431 13.0578 12.6307 13.2286C12.4969 13.2841 12.3535 13.3126 12.2086 13.3125Z" fill="white"/>
</g>
<defs>
<clipPath id="clip0_423_1658">
<rect width="16" height="16" fill="white"/>
</clipPath>
</defs>
</svg>
