<svg width="16" height="16" viewBox="0 0 16 16" fill="none" xmlns="http://www.w3.org/2000/svg">
<g clip-path="url(#clip0_423_1567)">
<path d="M12.25 0H3.75C1.67893 0 0 1.67893 0 3.75V12.25C0 14.3211 1.67893 16 3.75 16H12.25C14.3211 16 16 14.3211 16 12.25V3.75C16 1.67893 14.3211 0 12.25 0Z" fill="#F4F2ED"/>
<mask id="mask0_423_1567" style="mask-type:luminance" maskUnits="userSpaceOnUse" x="2" y="2" width="12" height="12">
<path d="M2.375 2.375H13.625V13.625H2.375V2.375Z" fill="white"/>
</mask>
<g mask="url(#mask0_423_1567)">
<path d="M10.7167 10.5646C10.7883 9.96831 10.7668 9.88131 11.2106 9.97756L11.3236 9.98762C11.6651 10.003 12.1115 9.93269 12.3783 9.811C12.943 9.54906 13.2778 9.11137 12.7211 9.2265C11.451 9.48844 11.3588 9.05819 11.3588 9.05819C12.7004 7.0675 13.2616 4.54062 12.7769 3.92231C11.4568 2.23481 9.17115 3.03287 9.13296 3.05394L9.12065 3.05612C8.87015 3.00344 8.59327 2.97262 8.27246 2.96825C7.69771 2.9595 7.26177 3.119 6.9304 3.36994C6.9304 3.36994 2.85359 1.69031 3.04302 5.48237C3.0834 6.28919 4.19877 11.5907 5.53027 9.98675C6.01765 9.40056 6.4879 8.90525 6.4879 8.90525C6.72077 9.06037 7.00071 9.1395 7.29384 9.11094L7.31665 9.09162C7.30994 9.16758 7.31305 9.24409 7.3259 9.31925C6.98315 9.70244 7.08421 9.76969 6.39865 9.91075C5.70521 10.0536 6.11302 10.308 6.37846 10.3748C6.70102 10.4557 7.44721 10.5699 7.95171 9.86419L7.93146 9.94456C8.06596 10.0522 8.05671 10.718 8.07646 11.1935C8.09627 11.669 8.12746 12.1133 8.22459 12.3747C8.32171 12.6362 8.43553 13.3108 9.3364 13.1218C10.0892 12.9606 10.6649 12.7281 10.7176 10.5686" fill="black"/>
<path d="M10.7167 10.5646C10.7883 9.96831 10.7668 9.88131 11.2106 9.97756L11.3236 9.98762C11.6651 10.003 12.1115 9.93269 12.3783 9.811C12.943 9.54906 13.2778 9.11137 12.7211 9.2265C11.451 9.48844 11.3588 9.05819 11.3588 9.05819C12.7004 7.0675 13.2616 4.54062 12.7769 3.92231C11.4568 2.23481 9.17115 3.03287 9.13296 3.05394L9.12065 3.05612C8.87015 3.00344 8.59327 2.97262 8.27246 2.96825C7.69771 2.9595 7.26177 3.119 6.9304 3.36994C6.9304 3.36994 2.85359 1.69031 3.04302 5.48237C3.0834 6.28919 4.19877 11.5907 5.53027 9.98675C6.01765 9.40056 6.4879 8.90525 6.4879 8.90525C6.72077 9.06037 7.00071 9.1395 7.29384 9.11094L7.31665 9.09162C7.30994 9.16758 7.31305 9.24409 7.3259 9.31925C6.98315 9.70244 7.08421 9.76969 6.39865 9.91075C5.70521 10.0536 6.11302 10.308 6.37846 10.3748C6.70102 10.4557 7.44721 10.5699 7.95171 9.86419L7.93146 9.94456C8.06596 10.0522 8.05671 10.718 8.07646 11.1935C8.09627 11.669 8.12746 12.1133 8.22459 12.3747C8.32171 12.6362 8.43553 13.3108 9.3364 13.1218C10.0892 12.9606 10.6649 12.7281 10.7176 10.5686" stroke="black" stroke-width="0.944375"/>
<path d="M12.7173 9.23051C11.4473 9.49238 11.3551 9.06219 11.3551 9.06219C12.6967 7.07144 13.2579 4.54457 12.7736 3.92625C11.4535 2.23875 9.16787 3.03725 9.12962 3.05794L9.11731 3.06013C8.83815 3.0041 8.55433 2.97452 8.26962 2.97176C7.69481 2.96301 7.25887 3.1225 6.92756 3.37344C6.92756 3.37344 2.85031 1.69388 3.04012 5.48594C3.08056 6.29276 4.19593 11.5943 5.52743 9.99032C6.01787 9.40057 6.48812 8.90525 6.48812 8.90525C6.72099 9.06038 7.00093 9.1395 7.29406 9.11094L7.31687 9.09163C7.31016 9.16759 7.31327 9.24409 7.32612 9.31926C6.98337 9.70244 7.08443 9.76969 6.39887 9.91076C5.70543 10.0536 6.11324 10.308 6.37868 10.3748C6.70124 10.4557 7.44743 10.5699 7.95193 9.86419L7.93168 9.94457C8.06618 10.0523 8.16018 10.6446 8.14437 11.1816C8.12856 11.7187 8.11799 12.0869 8.22349 12.3752C8.32899 12.6634 8.43443 13.3113 9.33531 13.1223C10.0881 12.961 10.4779 12.5422 10.5328 11.8453C10.5715 11.3495 10.6585 11.4224 10.6647 10.9795L10.735 10.7694C10.8154 10.0971 10.7481 9.88044 11.2117 9.9815L11.3247 9.99163C11.6662 10.007 12.1131 9.93669 12.375 9.81494C12.9397 9.55307 13.2746 9.11532 12.7178 9.23051H12.7173Z" fill="#336791"/>
<path d="M9.12916 3.03725C8.98854 3.08119 11.3985 2.15619 12.7687 3.9065C13.2522 4.52481 12.6918 7.05169 11.3502 9.04238M8.00591 9.6115C7.97079 10.8622 8.01472 12.1216 8.13691 12.424C8.25904 12.7263 8.52141 13.3249 9.42272 13.1324C10.1755 12.9711 10.4497 12.6586 10.5684 11.9691L10.8465 9.76444L8.00591 9.6115ZM6.92579 3.34181C6.92579 3.34181 2.84585 1.67369 3.03572 5.46563C3.07616 6.27244 4.19147 11.574 5.52304 9.97C6.00904 9.38419 6.44854 8.92588 6.44854 8.92588L6.92579 3.34181Z" stroke="white" stroke-width="0.314625" stroke-linecap="round" stroke-linejoin="round"/>
<path d="M11.3506 9.0415C11.3506 9.0415 11.4385 9.47218 12.7129 9.20937C13.2697 9.09425 12.9344 9.53193 12.3701 9.79387C11.907 10.0092 10.8681 10.0641 10.851 9.7675C10.807 9.00062 11.3976 9.23356 11.355 9.0415C11.3163 8.86837 11.0518 8.69875 10.8778 8.27512C10.7253 7.90593 8.78596 5.0715 11.4156 5.492C11.5123 5.47225 10.7301 2.98718 8.26914 2.95112C5.8082 2.91506 5.88602 5.97675 5.88602 5.97675" stroke="white" stroke-width="0.314625" stroke-linecap="round" stroke-linejoin="bevel"/>
<path d="M7.31733 9.30431C6.97458 9.6875 7.07565 9.75475 6.39015 9.89581C5.69665 10.0386 6.10452 10.2931 6.3699 10.3599C6.69246 10.4407 7.43865 10.555 7.94315 9.84875C8.09696 9.63343 7.94227 9.29069 7.73133 9.20369C7.6294 9.1615 7.49315 9.10875 7.31827 9.30475L7.31733 9.30431Z" stroke="white" stroke-width="0.314625" stroke-linejoin="round"/>
<path d="M7.29484 9.29768C7.25965 9.07224 7.36865 8.80462 7.48509 8.49087C7.66003 8.02068 8.06347 7.55043 7.7409 6.05762C7.50047 4.94574 5.8864 5.82599 5.8864 5.97674C5.8864 6.12749 5.95934 6.74143 5.86003 7.45549C5.72953 8.38805 6.45328 9.17643 7.28647 9.09599" stroke="white" stroke-width="0.314625" stroke-linecap="round" stroke-linejoin="round"/>
<path d="M6.91103 5.95439C6.90353 6.00576 7.00547 6.14333 7.13778 6.16176C7.27003 6.18026 7.38297 6.07301 7.39047 6.02114C7.39791 5.96926 7.29597 5.91301 7.16372 5.89458C7.03147 5.87614 6.9176 5.90339 6.91103 5.95439Z" fill="white" stroke="white" stroke-width="0.105"/>
<path d="M10.9378 5.84938C10.9448 5.90075 10.8433 6.03825 10.711 6.05675C10.5787 6.07519 10.4649 5.968 10.4583 5.91613C10.4517 5.86425 10.5528 5.808 10.6851 5.78957C10.8173 5.77113 10.9311 5.79838 10.9378 5.84938Z" fill="white" stroke="white" stroke-width="0.0523125"/>
<path d="M11.411 5.49295C11.433 5.89726 11.324 6.17189 11.3099 6.60214C11.2897 7.22701 11.6079 7.94245 11.1284 8.65876" stroke="white" stroke-width="0.314625" stroke-linecap="round" stroke-linejoin="round"/>
</g>
</g>
<defs>
<clipPath id="clip0_423_1567">
<rect width="16" height="16" fill="white"/>
</clipPath>
</defs>
</svg>
