<svg width="16" height="16" viewBox="0 0 16 16" fill="none" xmlns="http://www.w3.org/2000/svg">
<g clip-path="url(#clip0_423_1592)">
<path d="M12.25 0H3.75C1.67893 0 0 1.67893 0 3.75V12.25C0 14.3211 1.67893 16 3.75 16H12.25C14.3211 16 16 14.3211 16 12.25V3.75C16 1.67893 14.3211 0 12.25 0Z" fill="#FF6C37"/>
<path d="M10.5662 5.53826L7.40741 8.69707L6.5166 7.80632C9.62304 4.69994 9.92998 4.96944 10.5662 5.53826Z" fill="#EEEEEE"/>
<path d="M7.40771 8.77187C7.38521 8.77187 7.37027 8.76444 7.35527 8.74944L6.45702 7.85869C6.44993 7.85193 6.44428 7.84381 6.44042 7.8348C6.43656 7.8258 6.43457 7.81611 6.43457 7.80631C6.43457 7.79652 6.43656 7.78682 6.44042 7.77782C6.44428 7.76882 6.44993 7.76069 6.45702 7.75394C9.61584 4.59506 9.94515 4.8945 10.6114 5.49331C10.6264 5.50831 10.6338 5.52331 10.6338 5.54575C10.6338 5.56825 10.6264 5.58319 10.6114 5.59806L7.45259 8.74944C7.44515 8.76444 7.42265 8.77187 7.40771 8.77187ZM6.62171 7.80631L7.40771 8.59225L10.4542 5.54575C9.90034 5.05169 9.52602 4.902 6.62171 7.80631Z" fill="#FF6C37"/>
<path d="M8.31345 9.60281L7.45264 8.742L10.6114 5.58325C11.4573 6.4365 10.1923 7.82131 8.31345 9.60281Z" fill="#EEEEEE"/>
<path d="M8.31344 9.6777C8.29094 9.6777 8.27607 9.6702 8.26107 9.6552L7.40025 8.79439C7.38525 8.77945 7.38525 8.76445 7.38525 8.74201C7.38525 8.71951 7.39275 8.70457 7.40775 8.68957L10.5665 5.53082C10.5733 5.52374 10.5814 5.51811 10.5904 5.51426C10.5994 5.51041 10.6091 5.50842 10.6189 5.50842C10.6287 5.50842 10.6384 5.51041 10.6474 5.51426C10.6564 5.51811 10.6645 5.52374 10.6713 5.53082C10.7669 5.61926 10.8424 5.72716 10.8928 5.84724C10.9431 5.96732 10.9672 6.0968 10.9633 6.22695C10.9483 7.05776 10.0051 8.1132 8.37332 9.6552C8.35088 9.6702 8.32838 9.6777 8.31344 9.6777ZM7.55744 8.74201C8.03644 9.22851 8.23863 9.4232 8.31344 9.49801C9.571 8.30039 10.7911 7.07276 10.7986 6.22695C10.8061 6.03232 10.7313 5.8377 10.6039 5.68795L7.55744 8.74201Z" fill="#FF6C37"/>
<path d="M6.53173 7.82876L7.16798 8.46501C7.18294 8.48001 7.18294 8.49499 7.16798 8.50995C7.16048 8.51745 7.16048 8.51745 7.15304 8.51745L5.83554 8.80189C5.76823 8.80939 5.70836 8.76445 5.69336 8.69708C5.68586 8.65964 5.70086 8.62226 5.72336 8.59976L6.48679 7.83626C6.50179 7.82126 6.52423 7.81376 6.53173 7.82876Z" fill="#EEEEEE"/>
<path d="M5.81328 8.87674C5.70103 8.87674 5.61865 8.78686 5.61865 8.67455C5.61865 8.62224 5.64115 8.5698 5.67859 8.53236L6.44203 7.76886C6.48696 7.73142 6.5469 7.73142 6.59178 7.76886L7.22803 8.40511C7.2729 8.44255 7.2729 8.50992 7.22803 8.5548C7.21303 8.5698 7.19809 8.5773 7.17559 8.5848L5.85821 8.86924C5.84321 8.86924 5.82821 8.87674 5.81328 8.87674ZM6.50946 7.91105L5.7759 8.64461C5.7609 8.65961 5.7534 8.68205 5.7684 8.70449C5.7759 8.72699 5.79828 8.73449 5.82078 8.72699L7.05584 8.45749L6.50946 7.91105Z" fill="#FF6C37"/>
<path d="M12.2358 3.78674C11.7567 3.32267 10.9857 3.33761 10.5216 3.82417C10.0575 4.31067 10.0725 5.07417 10.559 5.5383C10.7511 5.7239 10.9992 5.84072 11.2646 5.87051C11.53 5.9003 11.7978 5.8414 12.0262 5.70299L11.1729 4.84961L12.2358 3.78674Z" fill="#EEEEEE"/>
<path d="M11.3973 5.95C10.6862 5.95 10.1099 5.37362 10.1099 4.6625C10.1099 3.95137 10.6862 3.375 11.3973 3.375C11.7267 3.375 12.0486 3.50225 12.2881 3.73431C12.3031 3.74931 12.3106 3.76431 12.3106 3.78669C12.3106 3.80919 12.3031 3.82419 12.2881 3.83912L11.2776 4.84963L12.071 5.64306C12.101 5.67306 12.101 5.71794 12.071 5.74788L12.0561 5.76288C11.8614 5.88256 11.6294 5.95 11.3973 5.95ZM11.3973 3.53225C10.7686 3.53225 10.2596 4.04119 10.2671 4.67C10.2671 5.29875 10.776 5.80775 11.4048 5.80031C11.577 5.80031 11.7491 5.76281 11.9063 5.6805L11.1204 4.90206C11.1054 4.88706 11.0979 4.87206 11.0979 4.84963C11.0979 4.82713 11.1054 4.81219 11.1204 4.79725L12.1234 3.79419C11.9213 3.62206 11.6668 3.53225 11.3973 3.53225Z" fill="#FF6C37"/>
<path d="M12.2582 3.80919L12.2433 3.79419L11.1729 4.84963L12.0187 5.6955C12.1011 5.64306 12.1834 5.58325 12.2508 5.51588C12.3642 5.40479 12.4544 5.2723 12.5163 5.12608C12.5781 4.97987 12.6103 4.82283 12.611 4.66409C12.6117 4.50534 12.5808 4.34803 12.5203 4.20128C12.4597 4.05453 12.3707 3.92126 12.2582 3.80919Z" fill="#EEEEEE"/>
<path d="M12.0258 5.77782C12.0033 5.77782 11.9884 5.77032 11.9734 5.75532L11.1201 4.90201C11.1051 4.88701 11.0977 4.87207 11.0977 4.84963C11.0977 4.82713 11.1051 4.81213 11.1201 4.7972L12.183 3.73438C12.213 3.70438 12.2578 3.70438 12.2878 3.73438L12.3103 3.74938C12.8118 4.25082 12.8118 5.05926 12.3178 5.56832C12.2429 5.64313 12.1605 5.71051 12.0707 5.76288C12.0483 5.77038 12.0333 5.77782 12.0258 5.77782ZM11.2773 4.8497L12.0333 5.6057C12.0932 5.56832 12.1531 5.51588 12.198 5.47095C12.6247 5.04426 12.6471 4.3482 12.2354 3.89907L11.2773 4.8497Z" fill="#FF6C37"/>
<path d="M10.6935 5.67293C10.6071 5.58666 10.4899 5.53821 10.3678 5.53821C10.2457 5.53821 10.1286 5.58666 10.0422 5.67293L7.22021 8.49493L7.69184 8.9665L10.6785 6.34668C10.8731 6.18193 10.888 5.89 10.7234 5.69543C10.7084 5.68793 10.7009 5.68043 10.6935 5.67293Z" fill="#EEEEEE"/>
<path d="M7.68459 9.04137C7.66215 9.04137 7.64715 9.03387 7.63215 9.01893L7.16059 8.54737C7.1535 8.5406 7.14787 8.53246 7.14402 8.52346C7.14017 8.51445 7.13818 8.50476 7.13818 8.49496C7.13818 8.48517 7.14017 8.47547 7.14402 8.46646C7.14787 8.45746 7.1535 8.44932 7.16059 8.44255L9.98252 5.62055C10.0321 5.57073 10.091 5.5312 10.1558 5.50422C10.2207 5.47724 10.2903 5.46335 10.3606 5.46335C10.4308 5.46335 10.5004 5.47724 10.5653 5.50422C10.6301 5.5312 10.689 5.57073 10.7386 5.62055C10.7884 5.6701 10.8279 5.729 10.8549 5.79388C10.8819 5.85875 10.8958 5.92832 10.8958 5.99859C10.8958 6.06885 10.8819 6.13842 10.8549 6.20329C10.8279 6.26817 10.7884 6.32707 10.7386 6.37662L10.7161 6.39906L7.72946 9.01893C7.722 9.03389 7.70704 9.04137 7.68459 9.04137ZM7.32527 8.49493L7.69209 8.86174L10.6263 6.28674C10.791 6.15199 10.806 5.90499 10.6712 5.74037C10.5365 5.57574 10.2895 5.56074 10.1248 5.69537C10.1173 5.70287 10.1098 5.71037 10.0948 5.71787L7.32527 8.49493Z" fill="#FF6C37"/>
<path d="M5.05709 11.7063C5.02709 11.7212 5.01215 11.7511 5.01959 11.7811L5.1469 12.3201C5.1769 12.3949 5.1319 12.4848 5.04959 12.5072C4.98971 12.5296 4.9224 12.5072 4.88496 12.4623L4.06152 11.6464L6.74877 8.95914L7.67696 8.97408L8.30571 9.60289C8.15602 9.73014 7.25027 10.6059 5.05709 11.7063Z" fill="#EEEEEE"/>
<path d="M4.99703 12.5819C4.93715 12.5819 4.87728 12.5595 4.83984 12.5146L4.0239 11.6987C4.0089 11.6837 4.00146 11.6687 4.00146 11.6463C4.00146 11.6239 4.00896 11.6089 4.02396 11.5939L6.71115 8.90669C6.72615 8.89169 6.74859 8.88419 6.76359 8.88419L7.69178 8.89919C7.71421 8.89919 7.72915 8.90669 7.74409 8.92162L8.3729 9.55037C8.3879 9.56537 8.39534 9.58781 8.39534 9.61025C8.39534 9.63275 8.3879 9.64769 8.3654 9.66269L8.31303 9.70762C7.51959 10.4037 6.44165 11.0999 5.10178 11.7661L5.22909 12.2975C5.25153 12.3948 5.20659 12.4996 5.11678 12.552C5.07184 12.5744 5.03446 12.5819 4.99703 12.5819ZM4.17359 11.6463L4.94465 12.4098C4.96703 12.4472 5.01196 12.4622 5.0494 12.4397C5.08684 12.4173 5.10184 12.3724 5.0794 12.3349L4.95215 11.796C4.93715 11.7286 4.96703 11.6687 5.02696 11.6388C6.35184 10.9726 7.42228 10.284 8.20822 9.60281L7.65434 9.04887L6.79353 9.03387L4.17359 11.6463Z" fill="#FF6C37"/>
<path d="M3.42528 12.2901L4.06903 11.6463L5.02716 12.6044L3.50016 12.4997C3.43278 12.4922 3.38785 12.4323 3.39535 12.3649C3.39535 12.3349 3.40278 12.305 3.42528 12.2901Z" fill="#EEEEEE"/>
<path d="M5.0272 12.6718L3.4927 12.567C3.38039 12.5595 3.30552 12.4623 3.31302 12.3499C3.32052 12.305 3.33552 12.2601 3.37295 12.2302L4.0167 11.5864C4.02346 11.5793 4.03158 11.5737 4.04059 11.5698C4.04959 11.566 4.05928 11.564 4.06908 11.564C4.07887 11.564 4.08857 11.566 4.09757 11.5698C4.10657 11.5737 4.1147 11.5793 4.12145 11.5864L5.07958 12.5446C5.10208 12.567 5.10958 12.5969 5.09458 12.6269C5.07958 12.6569 5.05712 12.6718 5.0272 12.6718ZM4.06908 11.7511L3.47777 12.3424C3.45527 12.3574 3.45527 12.3949 3.47777 12.4098C3.48527 12.4173 3.49277 12.4248 3.5077 12.4248L4.83258 12.5146L4.06908 11.7511ZM6.48683 9.30344C6.44189 9.30344 6.41195 9.266 6.41195 9.22857C6.41195 9.20613 6.41945 9.19119 6.43445 9.17619L7.16052 8.45013C7.16727 8.44302 7.1754 8.43737 7.18441 8.4335C7.19342 8.42964 7.20312 8.42764 7.21292 8.42764C7.22273 8.42764 7.23243 8.42964 7.24144 8.4335C7.25045 8.43737 7.25857 8.44302 7.26533 8.45013L7.73689 8.92169C7.75933 8.94413 7.76683 8.96657 7.75933 8.99657C7.75183 9.019 7.72939 9.04144 7.69952 9.04894L6.50183 9.30344H6.48683ZM7.21289 8.60732L6.71889 9.10138L7.52727 8.92913L7.21289 8.60732Z" fill="#FF6C37"/>
<path d="M7.67714 8.97401L6.85376 9.1537C6.79389 9.1687 6.73395 9.13126 6.71901 9.07139C6.71151 9.03395 6.71901 8.99651 6.74895 8.96657L7.20551 8.50995L7.67714 8.97401Z" fill="#EEEEEE"/>
<path d="M6.8385 9.22856C6.81386 9.22881 6.78941 9.22414 6.7666 9.21482C6.74378 9.20551 6.72305 9.19173 6.70563 9.17431C6.6882 9.15688 6.67442 9.13615 6.66511 9.11334C6.65579 9.09052 6.65113 9.06607 6.65138 9.04143C6.65138 8.98906 6.67381 8.94412 6.70375 8.90674L7.16038 8.45012C7.16713 8.44301 7.17526 8.43736 7.18427 8.43349C7.19328 8.42963 7.20298 8.42763 7.21278 8.42763C7.22259 8.42763 7.23229 8.42963 7.2413 8.43349C7.25031 8.43736 7.25843 8.44301 7.26519 8.45012L7.73675 8.92168C7.75919 8.94412 7.76669 8.96656 7.75919 8.99656C7.75169 9.01899 7.72925 9.04143 7.69938 9.04893L6.87594 9.22856H6.8385ZM7.21275 8.60731L6.80856 9.01149C6.79363 9.02649 6.79363 9.04143 6.80106 9.05643C6.80856 9.07139 6.82354 9.07887 6.846 9.07887L7.53463 8.92912L7.21275 8.60731ZM12.2654 4.52768C12.2504 4.48281 12.198 4.46037 12.1531 4.47537C12.1082 4.49024 12.0858 4.54268 12.1008 4.58762C12.1008 4.59512 12.1082 4.60262 12.1082 4.61006C12.1531 4.69993 12.1382 4.81218 12.0783 4.89449C12.0483 4.93199 12.0558 4.98437 12.0858 5.01431C12.1232 5.04418 12.1756 5.03681 12.2055 4.99931C12.3178 4.85706 12.3403 4.67743 12.2654 4.52768Z" fill="#FF6C37"/>
</g>
<defs>
<clipPath id="clip0_423_1592">
<rect width="16" height="16" fill="white"/>
</clipPath>
</defs>
</svg>
