<svg width="16" height="16" viewBox="0 0 16 16" fill="none" xmlns="http://www.w3.org/2000/svg">
<g clip-path="url(#clip0_423_1647)">
<path d="M12.25 0H3.75C1.67893 0 0 1.67893 0 3.75V12.25C0 14.3211 1.67893 16 3.75 16H12.25C14.3211 16 16 14.3211 16 12.25V3.75C16 1.67893 14.3211 0 12.25 0Z" fill="#242938"/>
<path d="M7.95494 1.8125C4.78169 1.8125 4.97981 3.18863 4.97981 3.18863L4.98338 4.61425H8.01156V5.04238H3.78056C3.78056 5.04238 1.75 4.812 1.75 8.01381C1.75 11.2156 3.52231 11.1022 3.52231 11.1022H4.58006V9.61637C4.58006 9.61637 4.52306 7.84406 6.32412 7.84406H9.3275C9.3275 7.84406 11.0149 7.87131 11.0149 6.21319V3.47163C11.0149 3.47163 11.2711 1.8125 7.95494 1.8125ZM6.28519 2.77119C6.35675 2.77113 6.42762 2.78518 6.49375 2.81254C6.55987 2.8399 6.61995 2.88003 6.67056 2.93063C6.72116 2.98123 6.76129 3.04132 6.78865 3.10744C6.816 3.17357 6.83006 3.24444 6.83 3.316C6.83005 3.38756 6.81599 3.45842 6.78863 3.52454C6.76126 3.59066 6.72114 3.65073 6.67053 3.70133C6.61993 3.75192 6.55985 3.79205 6.49373 3.8194C6.42761 3.84676 6.35674 3.86081 6.28519 3.86075C6.21364 3.8608 6.14278 3.84674 6.07666 3.81938C6.01055 3.79203 5.95048 3.7519 5.89988 3.70131C5.84929 3.65071 5.80916 3.59064 5.7818 3.52453C5.75444 3.45841 5.74039 3.38755 5.74044 3.316C5.74038 3.24444 5.75443 3.17358 5.78179 3.10746C5.80914 3.04133 5.84926 2.98125 5.89986 2.93065C5.95045 2.88005 6.01053 2.83992 6.07665 2.81256C6.14277 2.7852 6.21363 2.77114 6.28519 2.77119Z" fill="url(#paint0_linear_423_1647)"/>
<path d="M8.04512 14.2474C11.2184 14.2474 11.0202 12.8713 11.0202 12.8713L11.0167 11.4456H7.98849V11.0176H12.2195C12.2195 11.0176 14.2501 11.2479 14.2501 8.04599C14.2501 4.84412 12.4777 4.95768 12.4777 4.95768H11.42V6.44349C11.42 6.44349 11.477 8.21581 9.67593 8.21581H6.67256C6.67256 8.21581 4.98506 8.1885 4.98506 9.84662V12.5882C4.98506 12.5882 4.72887 14.2474 8.04512 14.2474ZM9.71487 13.2887C9.64331 13.2887 9.57245 13.2747 9.50633 13.2473C9.4402 13.22 9.38012 13.1799 9.32952 13.1293C9.27892 13.0787 9.23879 13.0186 9.21143 12.9525C9.18407 12.8864 9.17001 12.8155 9.17006 12.7439C9.17 12.6724 9.18405 12.6015 9.21141 12.5354C9.23877 12.4692 9.2789 12.4092 9.3295 12.3586C9.3801 12.308 9.44019 12.2678 9.50631 12.2405C9.57244 12.2131 9.64331 12.1991 9.71487 12.1991C9.78643 12.1991 9.8573 12.2131 9.92343 12.2405C9.98955 12.2678 10.0496 12.308 10.1002 12.3586C10.1508 12.4092 10.191 12.4692 10.2183 12.5354C10.2457 12.6015 10.2597 12.6724 10.2597 12.7439C10.2597 12.8155 10.2457 12.8864 10.2183 12.9525C10.1909 13.0186 10.1508 13.0787 10.1002 13.1293C10.0496 13.1799 9.98954 13.22 9.92341 13.2473C9.85729 13.2747 9.78643 13.2887 9.71487 13.2887Z" fill="url(#paint1_linear_423_1647)"/>
</g>
<defs>
<linearGradient id="paint0_linear_423_1647" x1="2.95125" y1="2.931" x2="9.14581" y2="9.06375" gradientUnits="userSpaceOnUse">
<stop stop-color="#387EB8"/>
<stop offset="1" stop-color="#366994"/>
</linearGradient>
<linearGradient id="paint1_linear_423_1647" x1="6.75356" y1="6.86906" x2="13.4058" y2="13.1576" gradientUnits="userSpaceOnUse">
<stop stop-color="#FFE052"/>
<stop offset="1" stop-color="#FFC331"/>
</linearGradient>
<clipPath id="clip0_423_1647">
<rect width="16" height="16" fill="white"/>
</clipPath>
</defs>
</svg>
