<svg width="16" height="16" viewBox="0 0 16 16" fill="none" xmlns="http://www.w3.org/2000/svg">
<g clip-path="url(#clip0_423_1560)">
<path d="M12.25 0H3.75C1.67893 0 0 1.67893 0 3.75V12.25C0 14.3211 1.67893 16 3.75 16H12.25C14.3211 16 16 14.3211 16 12.25V3.75C16 1.67893 14.3211 0 12.25 0Z" fill="#F4F2ED"/>
<path d="M2.1073 6.26301C2.1073 6.26301 1.81136 6.0497 2.16649 5.76489L2.99374 5.02514C2.99374 5.02514 3.23049 4.77608 3.48074 4.99308L11.115 10.773V13.5446C11.115 13.5446 11.1114 13.9799 10.5528 13.9318L2.1073 6.26301Z" fill="#2489CA"/>
<path d="M4.07522 8.0495L2.10747 9.83844C2.10747 9.83844 1.90522 9.98887 2.10747 10.2577L3.02103 11.0886C3.02103 11.0886 3.23803 11.3217 3.55859 11.0566L5.64472 9.47475L4.07522 8.0495Z" fill="#1070B3"/>
<path d="M7.52966 8.06431L11.1385 5.30868L11.115 2.55187C11.115 2.55187 10.9609 1.95018 10.4468 2.26337L5.64453 6.63406L7.52966 8.06431Z" fill="#0877B9"/>
<path d="M10.5528 13.9355C10.7624 14.15 11.0164 14.0798 11.0164 14.0798L13.8287 12.694C14.1887 12.4486 14.1382 12.1441 14.1382 12.1441V3.86864C14.1382 3.50489 13.7658 3.3792 13.7658 3.3792L11.3283 2.2042C10.7957 1.87501 10.4468 2.26339 10.4468 2.26339C10.4468 2.26339 10.8955 1.94039 11.115 2.55189V13.4941C11.1153 13.5687 11.0989 13.6424 11.067 13.7099C11.0028 13.8393 10.8635 13.9601 10.5294 13.9096L10.5528 13.9355Z" fill="#3C99D4"/>
</g>
<defs>
<clipPath id="clip0_423_1560">
<rect width="16" height="16" fill="white"/>
</clipPath>
</defs>
</svg>
