<?xml version="1.0" encoding="UTF-8"?>
<!DOCTYPE svg PUBLIC "-//W3C//DTD SVG 1.1//EN" "http://www.w3.org/Graphics/SVG/1.1/DTD/svg11.dtd">
<!-- Creator: CorelDRAW -->
<svg xmlns="http://www.w3.org/2000/svg" xml:space="preserve" width="301px" height="201px" version="1.1" style="shape-rendering:geometricPrecision; text-rendering:geometricPrecision; image-rendering:optimizeQuality; fill-rule:evenodd; clip-rule:evenodd"
viewBox="0 0 301 201"
 xmlns:xlink="http://www.w3.org/1999/xlink"
 xmlns:xodm="http://www.corel.com/coreldraw/odm/2003">
 <defs>
  <style type="text/css">
   <![CDATA[
    .fil3 {fill:#7F2D2D}
    .fil2 {fill:#212121;fill-rule:nonzero}
    .fil1 {fill:#6C6C6C;fill-rule:nonzero}
    .fil0 {fill:#CECECE;fill-rule:nonzero}
   ]]>
  </style>
 </defs>
 <g id="Camada_x0020_1">
  <metadata id="CorelCorpID_0Corel-Layer"/>
  <path class="fil0" d="M150.82 48.13l0 10.14 -46.01 0 -0.06 -0.07 -0.07 0.07 -90.04 0c-0.09,0 -0.17,0.07 -0.17,0.16l0 44.78 -14.47 0 0 0.98 14.47 0 0 44.22c0,0.09 0.08,0.16 0.17,0.16l44.49 0 0 20.17 0.99 0 0 -20.17 44.13 0 0 0.17 0.26 0 0.24 0.23 0.23 -0.23 0.26 0 0 -0.17 45.58 0 0 7.2 0.98 0 0 -7.2 45.78 0 0 0.17 0.25 0 0.24 0.23 0.23 -0.23 0.26 0 0 -0.17 44.11 0 0 9.82 0.98 0 0 -9.82 44.53 0c0.09,0 0.16,-0.07 0.16,-0.16l0 -44.22 11.66 0 0 -0.98 -11.66 0 0 -44.78c0,-0.09 -0.07,-0.16 -0.16,-0.16l-44.53 0 0 -0.03 -0.98 0 0 0.03 -44.53 0 -0.07 -0.07 -0.07 0.07 -46.2 0 0 -10.14 -0.98 0zm-135.79 10.47l44.1 0 0 44.19 -44.1 -44.19zm45.09 0l44.13 0 0 0.09 -44.13 44.07 0 -44.16zm45.12 0l45.58 0 0 44.19 -45.58 -44.11 0 -0.08zm46.56 0l45.78 0 0 0.08 -45.78 44.29 0 -44.37zm46.76 0l44.11 0 0 44.13 -44.11 -44.04 0 -0.09zm45.09 0l44.13 0 -44.13 44.22 0 -44.22zm-228.85 0.23l44.28 44.38 -44.28 0 0 -44.38zm273.21 0l0 44.38 -44.28 0 44.28 -44.38zm-182.77 0.31l45.54 44.07 -45.54 0 0 -44.07zm92.33 0l0 44.07 -45.54 0 45.54 -44.07zm-93.32 0.02l0 44.05 -44.12 0 44.12 -44.05zm94.3 0l44.12 44.04 0 0.01 -44.12 0 0 -44.05zm-183.75 45.03l43.88 0 -43.88 43.82 0 -43.82zm45.73 0l43.72 0 0 43.82 -43.72 -43.82zm44.71 0l45.3 0 -45.3 43.84 0 -43.84zm47.03 0l45.3 0 0 43.84 -45.3 -43.84zm46.29 0l43.72 0 -43.72 43.82 0 -43.82zm45.09 0l0.01 0 44.12 44.05 -44.13 0 0 -44.05zm0.48 0l43.88 0 0 43.82 -43.88 -43.82zm-92.33 0l45.52 44.05 -45.52 0 0 -44.05zm-92.67 0.02l0 44.03 -44.1 0 44.1 -44.03zm0.98 0.03l43.91 44 -43.91 0 0 -44zm182.56 0.03l0 43.97 -43.88 0 43.88 -43.97zm-91.85 0.11l0 43.86 -45.33 0 45.33 -43.86z"/>
  <path class="fil1" d="M151.31 71.45c-0.85,0 -1.7,0.33 -2.35,0.98 -1.25,1.25 -1.29,3.25 -0.13,4.56l-79.91 45.42 0.08 0.15c5.1,8.6 11.32,16.49 19.03,23.44l0.13 0.11 0.11 -0.13 60.81 -68.73c1.31,1.18 3.33,1.15 4.59,-0.11 1.29,-1.3 1.29,-3.41 0,-4.71 -0.65,-0.65 -1.5,-0.98 -2.36,-0.98l0 0zm0 0.33c0.77,0 1.54,0.29 2.12,0.88 1.18,1.17 1.18,3.07 0,4.24 -1.17,1.18 -3.07,1.18 -4.24,0 -1.17,-1.17 -1.17,-3.07 0,-4.24 0.59,-0.59 1.35,-0.88 2.12,-0.88zm114.19 1.01l0 0.33 3.66 0 0 73.01 -3.66 0 0 0.33 7.65 0 0 -0.33 -3.66 0 0 -73.01 3.66 0 0 -0.33 -7.65 0zm-221.27 1.21l-0.17 0.01 0 0c-0.06,0 -0.11,0 -0.17,0l-0.15 0.01 0 9.72 0.18 -0.02c0.05,0 0.1,-0.01 0.14,-0.01l0.01 0c0.84,0 1.52,0.68 1.52,1.53 0,0.84 -0.68,1.52 -1.52,1.52 -0.05,0 -0.1,0 -0.15,0l-0.18 -0.02 0 9.72 0.15 0.01c0.06,0 0.11,0 0.17,0l0 0c6.21,0 11.24,-5.03 11.24,-11.23 0,-6.15 -4.95,-11.13 -11.07,-11.22l0 -0.02zm-0.16 0.33c6.02,0.01 10.9,4.89 10.9,10.91 0,6.02 -4.88,10.9 -10.9,10.9 0,0 0,0 0,0l0 -9.05c1.02,0 1.85,-0.83 1.85,-1.85 0,-1.02 -0.83,-1.85 -1.85,-1.85l0 -9.05c0,0 0,-0.01 0,-0.01l0 0zm141.68 0.46l0 0c-3.26,0.09 -5.89,2.76 -5.89,6.05 0,3.28 2.63,5.95 5.89,6.04l0 32.12c0,0 -0.01,0 -0.01,0 -3.34,0 -6.05,2.71 -6.05,6.05 0,3.34 2.71,6.05 6.05,6.05 3.34,0 6.05,-2.71 6.05,-6.05 0,-3.22 -2.53,-5.86 -5.71,-6.03l0 -32.14c3.27,-0.09 5.89,-2.76 5.89,-6.04 0,-3.29 -2.62,-5.96 -5.89,-6.05l0 0 -0.33 0zm0 0.33l0 11.43c-3.08,-0.08 -5.56,-2.6 -5.56,-5.71 0,-3.11 2.48,-5.63 5.56,-5.72zm0.33 0c3.09,0.09 5.56,2.61 5.56,5.72 0,3.11 -2.47,5.63 -5.56,5.71l0 -11.43zm-37.83 2.58l-60.12 67.93c-7.58,-6.85 -13.72,-14.63 -18.75,-23.1l78.87 -44.83zm-73.43 2.01l0 7.65 0.32 0 0 -3.66 15.51 0 0 3.66 0.33 0 0 -7.65 -0.33 0 0 3.66 -15.51 0 0 -3.66 -0.32 0zm58.8 30.01l0 0.33 3.66 0 0 23.79 -3.66 0 0 0.32 7.65 0.01 0 -0.33 -3.66 0 0 -23.79 3.66 0 0 -0.33 -7.65 0zm52.12 9.6c0,0 0.01,0.01 0.01,0.01l0 11.44c0,0 -0.01,0 -0.01,0 -3.16,0 -5.73,-2.56 -5.73,-5.72 0,-3.16 2.57,-5.72 5.73,-5.72l0 -0.01zm0.34 0.02c3,0.18 5.38,2.66 5.38,5.71 0,3.05 -2.38,5.53 -5.38,5.71l0 -11.42zm31.28 1.03l0 7.65 0.33 0 0 -3.66 28.4 0 0 3.66 0.33 0 0 -7.65 -0.33 0 0 3.66 -28.4 0 0 -3.66 -0.33 0z"/>
  <path class="fil2" d="M27.34 16.94c-0.18,0 -0.33,0.15 -0.33,0.33l0 6.48c0,0.35 0.02,0.79 0.07,1.33 0.01,0.22 0.03,0.35 0.05,0.54 -0.26,-0.3 -0.49,-0.61 -0.81,-0.86 -0.52,-0.41 -1.14,-0.73 -1.84,-0.96 -0.71,-0.24 -1.53,-0.36 -2.46,-0.36 -2.21,0 -4.02,0.75 -5.36,2.25 -1.36,1.5 -2.01,3.69 -2.01,6.52 0,2.81 0.64,4.98 1.96,6.45 0,0 0,0.01 0,0.01 1.32,1.46 3.14,2.2 5.36,2.2 0.95,0 1.78,-0.12 2.5,-0.36 0,0 0,0 0,0 0.71,-0.24 1.33,-0.58 1.85,-0.99l0 -0.01c0.36,-0.28 0.62,-0.63 0.9,-0.96l0.29 1.75c0.03,0.16 0.17,0.28 0.33,0.28 0,0 0,0 0,0l2.08 0c0.18,0 0.32,-0.15 0.32,-0.33l0 -22.98c0,-0.18 -0.14,-0.33 -0.32,-0.33l-2.58 0zm9.72 0.74c-0.51,0 -0.97,0.16 -1.34,0.48 -0.37,0.33 -0.54,0.85 -0.54,1.46 0,0.6 0.17,1.11 0.54,1.45 0,0 0,0 0.01,0 0.36,0.32 0.82,0.49 1.33,0.49 0.49,0 0.94,-0.17 1.3,-0.48 0.39,-0.34 0.58,-0.86 0.58,-1.46 0,-0.61 -0.19,-1.13 -0.58,-1.46 -0.36,-0.32 -0.81,-0.48 -1.3,-0.48l0 0zm51.42 5.43c-1.4,0 -2.61,0.22 -3.62,0.68 -1.02,0.45 -1.81,1.13 -2.35,2.01 -0.54,0.88 -0.81,1.93 -0.81,3.14 0,1.15 0.29,2.18 0.88,3.06 0,0 0,0.01 0,0.01 0.48,0.7 1.11,1.2 1.83,1.58 -0.51,0.34 -0.94,0.69 -1.24,1.07 0,0 0,0 0,0 -0.39,0.5 -0.58,1.1 -0.58,1.75 0,0.58 0.18,1.12 0.53,1.57 0,0 0,0 0.01,0 0.18,0.23 0.39,0.42 0.62,0.6 -0.91,0.28 -1.7,0.67 -2.28,1.29 -0.01,0 -0.01,0 -0.01,0 -0.72,0.77 -1.09,1.73 -1.09,2.82 0,1.52 0.67,2.76 1.96,3.6 0,0 0,0 0,0l0 0c1.29,0.85 3.07,1.25 5.35,1.25 2.93,0 5.2,-0.48 6.81,-1.48 1.61,-1.01 2.45,-2.52 2.45,-4.4 0,-1.5 -0.55,-2.7 -1.62,-3.5l0 0c-1.06,-0.8 -2.55,-1.17 -4.45,-1.17l-2.99 0c-0.52,0 -0.96,-0.04 -1.31,-0.11 -0.35,-0.08 -0.58,-0.2 -0.73,-0.34 -0.13,-0.12 -0.2,-0.26 -0.2,-0.51 0,-0.35 0.1,-0.64 0.32,-0.91 0.22,-0.27 0.56,-0.52 1,-0.76 0.46,0.07 0.92,0.11 1.37,0.11 2.05,0 3.71,-0.49 4.93,-1.49 0.01,0 0.01,0 0.01,0 1.22,-1.02 1.84,-2.42 1.84,-4.11 0,-0.69 -0.11,-1.34 -0.33,-1.92 -0.15,-0.39 -0.36,-0.69 -0.56,-1l2.65 -0.31c0.16,-0.02 0.29,-0.16 0.29,-0.33l0 -1.58c0,-0.18 -0.15,-0.33 -0.33,-0.33l-5.8 0c-0.22,-0.06 -0.45,-0.1 -0.71,-0.14 -0.29,-0.05 -0.6,-0.09 -0.92,-0.11l0 0c-0.3,-0.03 -0.61,-0.04 -0.92,-0.04zm-37.6 0.06c-1.12,0 -2.2,0.13 -3.22,0.41 -1.01,0.27 -1.91,0.59 -2.69,0.98 -0.12,0.05 -0.19,0.17 -0.19,0.29 0,0.05 0.01,0.09 0.03,0.13l0.79 1.86c0.05,0.12 0.17,0.2 0.3,0.2 0.05,0 0.1,-0.01 0.14,-0.03 0.71,-0.33 1.46,-0.61 2.25,-0.85 0.78,-0.24 1.59,-0.36 2.45,-0.36 1.1,0 1.9,0.26 2.45,0.76 0.53,0.47 0.84,1.34 0.84,2.69l0 0.68 -2.62 0.1c-2.78,0.08 -4.88,0.55 -6.31,1.47 -1.42,0.92 -2.16,2.29 -2.16,4 0,1.12 0.23,2.07 0.73,2.84 0,0 0,0 0,0 0.5,0.75 1.19,1.32 2.04,1.69 0,-0.01 0,0 0,0 0.85,0.36 1.82,0.54 2.89,0.54 1.01,0 1.86,-0.1 2.57,-0.31 0.01,0 0.01,0 0.01,0 0.71,-0.22 1.35,-0.54 1.9,-0.96 0,0 0,0 0,0 0.42,-0.32 0.81,-0.75 1.2,-1.19l0.39 1.9c0.03,0.15 0.17,0.26 0.32,0.26l1.88 0c0.18,0 0.33,-0.14 0.33,-0.33l0 -11c0,-1.95 -0.51,-3.45 -1.59,-4.39 -1.06,-0.94 -2.66,-1.38 -4.73,-1.38l0 0zm19.78 0.27c-0.79,0 -1.55,0.11 -2.28,0.32 -0.72,0.21 -1.38,0.52 -1.97,0.93l0 0c-0.43,0.3 -0.79,0.67 -1.11,1.07l-0.29 -1.75c-0.02,-0.16 -0.16,-0.27 -0.32,-0.27l-2.08 -0.01c-0.18,0.01 -0.33,0.15 -0.33,0.33l0 16.19c0,0.18 0.15,0.33 0.33,0.33l2.58 0c0.18,0 0.32,-0.15 0.32,-0.33l0 -8.48c0,-1.89 0.38,-3.28 1.08,-4.22 0.69,-0.91 1.89,-1.39 3.71,-1.39 1.28,0 2.17,0.32 2.73,0.91 0,0 0,0 0,0 0.58,0.59 0.89,1.5 0.89,2.8l0 10.38c0,0.18 0.15,0.33 0.33,0.33l2.54 0c0.18,0 0.33,-0.15 0.33,-0.33l0 -10.55c0,-2.13 -0.54,-3.74 -1.66,-4.76l0 0c-1.11,-1.01 -2.73,-1.5 -4.8,-1.5l0 0zm36.68 0.03c-1.67,0 -3.13,0.34 -4.36,1.03 -1.23,0.68 -2.18,1.69 -2.83,2.99 -0.66,1.29 -0.98,2.85 -0.98,4.67 0,1.36 0.19,2.58 0.57,3.67 0,0 0,0 0.01,0 0.39,1.08 0.95,2 1.66,2.75 0,0 0,0 0,0 0.73,0.76 1.59,1.33 2.57,1.73 0,0.01 0,0.01 0,0.01 1,0.39 2.08,0.58 3.26,0.58 1.25,0 2.38,-0.19 3.39,-0.58 0,0 0,0 0,0 1.01,-0.4 1.88,-0.98 2.6,-1.74 0.72,-0.75 1.26,-1.68 1.64,-2.76 0.37,-1.08 0.56,-2.31 0.56,-3.66 0,-1.81 -0.33,-3.36 -1.02,-4.66 -0.66,-1.3 -1.62,-2.31 -2.84,-3l0 0c-1.21,-0.69 -2.63,-1.03 -4.23,-1.03l0 0zm-71.6 0.26c-0.18,0.01 -0.33,0.15 -0.33,0.33l0 18.8c0,0.94 -0.21,1.51 -0.53,1.79 -0.37,0.32 -0.85,0.48 -1.5,0.48 -0.39,0 -0.75,-0.03 -1.06,-0.08 0,0 0,0 -0.01,0 -0.31,-0.05 -0.62,-0.12 -0.93,-0.21 -0.03,-0.01 -0.06,-0.02 -0.09,-0.02 -0.18,0 -0.33,0.15 -0.33,0.33l0 1.99c0,0.14 0.09,0.27 0.22,0.31 0.31,0.11 0.67,0.19 1.07,0.27 0.42,0.08 0.9,0.12 1.44,0.12 1.1,0 2.02,-0.19 2.77,-0.6 0.74,-0.41 1.3,-1.01 1.66,-1.77l0 0c0.35,-0.76 0.52,-1.65 0.52,-2.67l0 -18.74c0,-0.18 -0.14,-0.32 -0.32,-0.32l-2.58 -0.01zm52.65 1.85c1.18,0 2.01,0.29 2.56,0.82 0.01,0 0.01,0 0.01,0 0.55,0.53 0.84,1.33 0.84,2.48 0,1.08 -0.28,1.83 -0.83,2.35 -0.54,0.52 -1.37,0.8 -2.55,0.8 -1.13,0 -1.95,-0.28 -2.52,-0.8 -0.57,-0.52 -0.86,-1.26 -0.86,-2.3 0,-1.15 0.29,-1.95 0.85,-2.5 0.57,-0.56 1.38,-0.85 2.5,-0.85l0 0zm-66.01 0.55c1.82,0 2.99,0.51 3.63,1.51 0,0 0,0 0,0 0.67,1.02 1.03,2.54 1.03,4.56l0 0.44c0,1.9 -0.37,3.29 -1.06,4.19 -0.68,0.88 -1.84,1.35 -3.6,1.35 -1.52,0 -2.58,-0.49 -3.31,-1.49l0 0 0 0c-0.72,-1.01 -1.1,-2.47 -1.1,-4.42 0,-1.95 0.39,-3.46 1.12,-4.54 0,0 0,0 0,0 0.73,-1.08 1.78,-1.6 3.29,-1.6zm84.9 0.06c1.16,0 2.06,0.25 2.75,0.71 0.7,0.48 1.21,1.14 1.55,2.04 0.01,0 0.01,0 0.01,0 0.34,0.89 0.52,1.96 0.52,3.22 0,1.26 -0.18,2.35 -0.53,3.26 -0.34,0.9 -0.85,1.58 -1.56,2.06 0,0 -0.01,0 -0.01,0 -0.69,0.48 -1.58,0.73 -2.71,0.73 -1.14,0 -2.04,-0.25 -2.73,-0.73 -0.7,-0.48 -1.22,-1.16 -1.56,-2.06 -0.34,-0.91 -0.52,-1.99 -0.52,-3.26 0,-1.93 0.4,-3.39 1.16,-4.43l0 0c0,0 0,0 0,0 0.76,-1.02 1.93,-1.54 3.63,-1.54l0 0zm-53.28 6.12l0 1.15c0,1.53 -0.45,2.61 -1.33,3.34 -0.9,0.74 -2.04,1.12 -3.5,1.12 -0.92,0 -1.62,-0.21 -2.14,-0.6 -0.5,-0.38 -0.76,-0.93 -0.76,-1.79 0,-0.97 0.37,-1.67 1.16,-2.19 0.78,-0.52 2.22,-0.86 4.32,-0.94 0,0 0,0 0,0 0,0 0,0 0,0l2.25 -0.09zm33.04 7.62l2.95 0c0.85,0 1.57,0.06 2.14,0.17 0,0 0,0 0,0 0.55,0.1 0.94,0.29 1.19,0.56 0.23,0.25 0.37,0.65 0.37,1.25 0,0.62 -0.19,1.13 -0.61,1.58 0,0 0,0 0,0 -0.4,0.45 -1.03,0.82 -1.93,1.07 0,0 0,0 0,0 -0.88,0.27 -2.01,0.4 -3.4,0.4 -1.4,0 -2.45,-0.23 -3.15,-0.65 0,0 0,0 0,0 -0.7,-0.4 -1,-0.93 -1,-1.71 0,-0.6 0.13,-1.08 0.39,-1.46 0.27,-0.39 0.65,-0.68 1.17,-0.89 0.52,-0.21 1.15,-0.32 1.88,-0.32l0 0zm42.8 121.33c-1.2,0 -2.23,0.21 -3.09,0.64 -0.87,0.44 -1.54,1.13 -2,2.04l0 0 0 0c-0.45,0.91 -0.67,2.06 -0.67,3.45l0 0.83 -2.76 0.75c-0.15,0.03 -0.24,0.16 -0.24,0.31 0,0 0,0 0,0l0 1.18c0,0.18 0.14,0.33 0.32,0.33l2.68 0 0 13.94c0,0.18 0.15,0.33 0.33,0.33l2.58 0c0.18,0 0.33,-0.15 0.33,-0.33l0 -13.94 3.9 0c0.18,0 0.33,-0.15 0.33,-0.33l0 -1.92c0,-0.18 -0.15,-0.32 -0.33,-0.32l-3.91 0 0 -0.86c0,-1.25 0.24,-2.12 0.63,-2.63l0 0c0.41,-0.53 1.02,-0.79 1.93,-0.79 0.43,0 0.85,0.05 1.26,0.14 0.01,0 0.01,0 0.01,0 0.44,0.09 0.83,0.18 1.17,0.29 0.03,0.01 0.06,0.01 0.09,0.01 0.14,0 0.27,-0.09 0.31,-0.22l0.67 -1.93c0.01,-0.04 0.02,-0.07 0.02,-0.11 0,-0.14 -0.09,-0.27 -0.23,-0.31 -0.43,-0.14 -0.92,-0.27 -1.48,-0.38 -0.56,-0.11 -1.18,-0.17 -1.85,-0.17l0 0zm144.35 0.16c-0.18,0 -0.33,0.15 -0.33,0.33l0 22.98c0,0.18 0.15,0.33 0.33,0.33l2.56 0c0.18,0 0.33,-0.15 0.33,-0.33l0 -5.72 1.69 -1.47 5.79 7.39c0.06,0.08 0.16,0.13 0.26,0.13 0,0 0,0 0,0l3.1 0c0,0 0,0 0,0 0.18,0 0.33,-0.15 0.33,-0.33 0,-0.08 -0.03,-0.15 -0.07,-0.21l-7.16 -9.04 6.64 -6.71c0.06,-0.06 0.09,-0.14 0.09,-0.23 0,-0.18 -0.15,-0.32 -0.33,-0.32l-3.02 0c-0.09,0 -0.18,0.03 -0.24,0.09l-5.64 5.73c0,0 -0.01,0.01 -0.01,0.01 -0.29,0.31 -0.65,0.72 -1.08,1.22 0,0 0,0 0,0.01 -0.19,0.22 -0.29,0.34 -0.43,0.51 0.01,-0.22 0.02,-0.4 0.03,-0.64 0,0 0,0 0,0 0,0 0,0 0,0 0.03,-0.58 0.05,-1.07 0.05,-1.47l0 -11.93c0,-0.18 -0.15,-0.33 -0.33,-0.33l-2.56 0zm-70.67 6.2c-1.57,0 -2.96,0.36 -4.14,1.08 0,0 0,0 0,0 -1.18,0.72 -2.09,1.76 -2.73,3.09 0,0 0,0 0,0 0,0 0,0 0,0 -0.64,1.32 -0.95,2.88 -0.95,4.66 0,1.82 0.34,3.39 1.05,4.68 0.7,1.28 1.69,2.27 2.95,2.94 0,0 0.01,0 0.01,0 1.27,0.65 2.75,0.98 4.43,0.98 1.16,0 2.18,-0.09 3.04,-0.26 0.87,-0.17 1.75,-0.45 2.63,-0.82 0.12,-0.05 0.2,-0.17 0.2,-0.3 0,0 0,0 0,0l0 -2.15c0,0 0,0 0,0 0,-0.18 -0.15,-0.33 -0.33,-0.33 -0.05,0 -0.09,0.01 -0.13,0.02 -0.87,0.36 -1.71,0.63 -2.52,0.81 -0.8,0.18 -1.73,0.28 -2.78,0.28 -1.69,0 -2.94,-0.47 -3.83,-1.4 -0.83,-0.86 -1.29,-2.11 -1.37,-3.78l11.39 0c0.18,0 0.32,-0.15 0.32,-0.33l0 -1.52c0,-1.51 -0.28,-2.84 -0.85,-3.99l0 0c-0.58,-1.15 -1.42,-2.06 -2.5,-2.7 -1.09,-0.65 -2.4,-0.96 -3.89,-0.96l0 0zm44.41 0c-1.67,0 -3.13,0.34 -4.37,1.03 -1.22,0.68 -2.17,1.68 -2.83,2.99 -0.66,1.29 -0.98,2.85 -0.98,4.66 0,1.36 0.19,2.59 0.58,3.67 0,0 0,0 0,0.01 0.39,1.08 0.95,2 1.66,2.75 0,0 0.01,0 0.01,0 0.72,0.75 1.58,1.33 2.56,1.73 0,0 0,0 0,0 1,0.39 2.09,0.59 3.26,0.59 1.25,0 2.39,-0.2 3.39,-0.59 0,0 0,0 0,0 1.01,-0.4 1.89,-0.98 2.6,-1.73 0.72,-0.75 1.27,-1.68 1.64,-2.76 0.38,-1.08 0.56,-2.31 0.56,-3.67 0,-1.8 -0.33,-3.36 -1.01,-4.65 -0.67,-1.3 -1.62,-2.31 -2.85,-3l0 0c-1.21,-0.69 -2.62,-1.03 -4.22,-1.03l0 0zm-92.36 0.03c-1.12,0 -2.2,0.13 -3.22,0.41 -1.01,0.27 -1.91,0.59 -2.69,0.98 -0.12,0.05 -0.19,0.17 -0.19,0.29 0,0.05 0.01,0.09 0.03,0.13l0.79 1.86c0.05,0.12 0.17,0.2 0.3,0.2 0.05,0 0.1,-0.01 0.14,-0.03 0.71,-0.33 1.46,-0.61 2.25,-0.85 0.78,-0.24 1.59,-0.36 2.45,-0.36 1.09,0 1.89,0.26 2.45,0.76 0.53,0.47 0.84,1.34 0.84,2.69l0 0.68 -2.62 0.1 0 0c-2.78,0.08 -4.88,0.55 -6.31,1.47 -1.42,0.92 -2.17,2.29 -2.17,4 0,1.12 0.24,2.07 0.74,2.84 0,0 0,0 0,0 0.5,0.75 1.19,1.32 2.04,1.69 0,-0.01 0,-0.01 0,0 0.85,0.36 1.82,0.54 2.89,0.54 1,0 1.86,-0.1 2.57,-0.31 0,0 0.01,0 0.01,0 0.71,-0.22 1.35,-0.54 1.9,-0.96 0,0 0,0 0,0 0.42,-0.32 0.81,-0.75 1.2,-1.19l0.39 1.9c0.03,0.15 0.17,0.26 0.32,0.26l1.88 0c0.18,0 0.33,-0.14 0.33,-0.33l0 -11c0,-1.95 -0.52,-3.45 -1.59,-4.39 -1.06,-0.94 -2.66,-1.38 -4.73,-1.38l0 0zm-12.19 0.27c-0.85,0 -1.63,0.16 -2.34,0.47 0,0 0,0 0,0 -0.69,0.31 -1.3,0.73 -1.82,1.26 0,0 0,0 0,0 -0.35,0.35 -0.61,0.75 -0.89,1.15l-0.21 -2.29c-0.02,-0.17 -0.16,-0.29 -0.33,-0.29 0,0 0,0 0,0l-2.14 0c-0.18,0 -0.33,0.14 -0.33,0.32l0 16.19c0,0.18 0.15,0.33 0.33,0.33l2.59 0c0.18,0 0.33,-0.15 0.33,-0.33l0 -8.69c0,-0.8 0.12,-1.52 0.37,-2.15 0,0 0,0 0,0 0,0 0,0 0,0 0.24,-0.66 0.58,-1.2 1,-1.65 0,0 0,0 0,0 0.43,-0.46 0.91,-0.81 1.47,-1.05 0,0 0,0 0,0 0.57,-0.25 1.17,-0.37 1.81,-0.37 0.29,0 0.6,0.02 0.93,0.06 0.33,0.04 0.62,0.09 0.89,0.15 0.02,0.01 0.05,0.01 0.07,0.01 0.17,0 0.31,-0.12 0.33,-0.28l0.32 -2.27c0.01,-0.02 0.01,-0.03 0.01,-0.05 0,-0.16 -0.11,-0.29 -0.26,-0.32 -0.31,-0.06 -0.65,-0.11 -1.03,-0.14l-0.01 0c-0.38,-0.04 -0.74,-0.06 -1.09,-0.06zm31.35 0c-0.76,0 -1.47,0.1 -2.15,0.31 -0.67,0.21 -1.29,0.51 -1.83,0.92 -0.39,0.29 -0.72,0.64 -1.01,1.03l-0.29 -1.69c-0.03,-0.16 -0.16,-0.27 -0.32,-0.27 0,0 0,0 0,0l-2.08 0c-0.18,0 -0.33,0.14 -0.33,0.32l0 16.19c0,0.18 0.15,0.33 0.33,0.33l2.57 0c0.18,0 0.33,-0.15 0.33,-0.33l0 -8.57c0,-1.24 0.15,-2.27 0.43,-3.09l0 0c0,0 0,0 0,0 0.29,-0.82 0.74,-1.41 1.36,-1.82 0.61,-0.39 1.45,-0.61 2.54,-0.61 0.75,0 1.35,0.14 1.81,0.4 0,0 0,0 0,0.01 0.47,0.25 0.81,0.62 1.04,1.14 0,0 0,0 0,0.01 0.24,0.52 0.37,1.2 0.37,2.04l0 10.49c0,0.18 0.15,0.33 0.33,0.33l2.56 0c0.18,0 0.33,-0.15 0.33,-0.33l0 -9.05c0,-1.72 0.36,-2.97 1.04,-3.8 0.67,-0.81 1.75,-1.24 3.33,-1.24 1.11,0 1.88,0.3 2.39,0.88 0.01,0 0.01,0 0.01,0.01 0.52,0.57 0.81,1.45 0.81,2.71l0 10.49c0,0.18 0.15,0.33 0.33,0.33l2.54 0c0.18,0 0.33,-0.15 0.33,-0.33l0 -10.61c0,-2.1 -0.49,-3.69 -1.53,-4.7l0 0c-1.02,-1.01 -2.53,-1.5 -4.46,-1.5 -1.2,0 -2.32,0.24 -3.34,0.72 0,0 0,0 0,0.01 0,0 0,0 0,0 -0.91,0.42 -1.63,1.09 -2.2,1.92 -0.43,-0.82 -1.03,-1.49 -1.85,-1.92 -0.93,-0.49 -2.06,-0.73 -3.39,-0.73l0 0zm92.95 0c-0.84,0 -1.62,0.16 -2.33,0.47 0,0 0,0 0,0 -0.69,0.31 -1.3,0.73 -1.82,1.26 0,0 0,0 0,0 -0.35,0.35 -0.61,0.75 -0.89,1.15l-0.21 -2.29c-0.02,-0.17 -0.16,-0.29 -0.33,-0.29 0,0 0,0 0,0l-2.14 0c-0.18,0 -0.33,0.14 -0.33,0.32l0 16.19c0,0.18 0.15,0.33 0.33,0.33l2.59 0c0.18,0 0.33,-0.15 0.33,-0.33l0 -8.69c0,-0.8 0.12,-1.52 0.36,-2.15 0,0 0,0 0,0 0,0 0,0 0,0 0.25,-0.66 0.58,-1.2 1.01,-1.65 0,0 0,0 0,-0.01 0.42,-0.46 0.91,-0.8 1.47,-1.04 0,0 0,0 0,0 0.57,-0.25 1.17,-0.37 1.81,-0.37 0.29,0 0.59,0.02 0.92,0.06 0.34,0.04 0.63,0.09 0.9,0.15 0.02,0.01 0.05,0.01 0.07,0.01 0.17,0 0.31,-0.12 0.33,-0.28l0.32 -2.27c0.01,-0.02 0.01,-0.03 0.01,-0.05 0,-0.16 -0.11,-0.29 -0.27,-0.32 -0.3,-0.06 -0.64,-0.11 -1.03,-0.14l0 0c-0.38,-0.04 -0.74,-0.06 -1.1,-0.06zm-54.2 0.3c0,0 0,0 0,0 -0.18,0 -0.33,0.14 -0.33,0.32 0,0.03 0.01,0.07 0.02,0.09l4.68 16.19c0.04,0.14 0.17,0.24 0.32,0.24 0,0 0,0 0,0l2.9 0c0.14,0 0.26,-0.09 0.31,-0.23l3.16 -9.37 0 0c0.15,-0.41 0.28,-0.81 0.4,-1.21 0,-0.01 0,-0.01 0,-0.01 0.11,-0.4 0.21,-0.78 0.31,-1.15l0 0c0.07,-0.25 0.12,-0.47 0.18,-0.69 0.06,0.22 0.11,0.44 0.18,0.69 0,0 0,0 0,0.01 0.11,0.35 0.21,0.72 0.33,1.12 0,0 0,0 0,0.01 0.12,0.38 0.25,0.78 0.39,1.18l3.02 9.42c0.05,0.13 0.17,0.23 0.31,0.23l3 0c0,0 0,0 0,0 0.14,0 0.27,-0.1 0.31,-0.24l4.7 -16.18c0.01,-0.03 0.02,-0.06 0.02,-0.1 0,-0.18 -0.15,-0.32 -0.33,-0.32 0,0 0,0 0,0l-2.62 0c-0.15,0 -0.28,0.09 -0.32,0.24l-2.48 8.93c0,0 0,0 0,0 -0.17,0.61 -0.33,1.21 -0.48,1.81 0,0 0,0 0,0 -0.14,0.57 -0.27,1.1 -0.38,1.58 -0.13,-0.48 -0.26,-0.98 -0.42,-1.49l0 0c-0.14,-0.52 -0.29,-1.01 -0.45,-1.49l0 0 -3.03 -9.36c-0.04,-0.13 -0.17,-0.22 -0.31,-0.22l-2.78 0c0,0 0,0 0,0 -0.14,0 -0.26,0.09 -0.31,0.22l-3.13 9.38c0,0 0,0 0,0 0,0 0,0 0,0 -0.12,0.35 -0.23,0.72 -0.35,1.12 -0.11,0.38 -0.22,0.77 -0.32,1.17 0,0 -0.01,0.01 -0.01,0.01 -0.06,0.26 -0.12,0.51 -0.18,0.76 0,-0.04 -0.01,-0.06 -0.01,-0.09 -0.11,-0.52 -0.24,-1.06 -0.39,-1.63l0 -0.01c-0.15,-0.58 -0.3,-1.17 -0.47,-1.76l0 0 -2.45 -8.93c-0.04,-0.15 -0.17,-0.24 -0.32,-0.24 0,0 0,0 0,0l-2.67 0zm-9.99 2.06c0.92,0 1.65,0.2 2.21,0.57 0,0 0,0 0,0 0.56,0.37 0.98,0.88 1.25,1.56 0.01,0 0.01,0 0.01,0.01 0.25,0.59 0.38,1.29 0.42,2.08l-8.23 0c0.19,-1.29 0.6,-2.31 1.29,-3.04 0.75,-0.79 1.74,-1.18 3.05,-1.18zm44.37 0.06c1.16,0 2.06,0.25 2.75,0.71 0.7,0.48 1.21,1.14 1.56,2.04 0,-0.01 0,0 0,0 0.34,0.88 0.52,1.95 0.52,3.21 0,1.27 -0.18,2.36 -0.53,3.27 -0.34,0.9 -0.85,1.57 -1.56,2.06 0,0 0,0 0,0 -0.69,0.48 -1.59,0.73 -2.72,0.73 -1.14,0 -2.04,-0.25 -2.73,-0.73 -0.7,-0.48 -1.21,-1.16 -1.56,-2.06 -0.34,-0.91 -0.52,-2 -0.52,-3.27 0,-1.92 0.4,-3.38 1.16,-4.42l0 0c0,0 0,0 0.01,0 0.76,-1.02 1.93,-1.54 3.63,-1.54l-0.01 0zm-89.17 6.45l0 1.15c0,1.53 -0.45,2.61 -1.33,3.34 -0.89,0.74 -2.04,1.12 -3.49,1.12 -0.93,0 -1.63,-0.21 -2.15,-0.6 -0.5,-0.38 -0.75,-0.93 -0.75,-1.79 0,-0.97 0.36,-1.66 1.16,-2.19 0.77,-0.52 2.22,-0.86 4.31,-0.94 0,0 0,0 0,0l2.25 -0.09z"/>
  <path class="fil3" d="M28.12 70.16l13.31 0c1.47,0 5.68,0.42 9.35,2.31 3.66,1.9 6.81,5.1 6.81,11.13l0 1.81c0,6.11 -2.43,9.63 -6.07,11.82 -3.64,2.2 -8.6,2.95 -13.42,2.95l-9.98 0 0 -30.02zm234.81 79.46c0.26,-0.25 0.14,0.34 0.24,-0.54l-0.01 -78.87c0.46,0 25.04,0.11 25.74,-0.05 0.07,-0.02 0.21,-0.06 0.21,-0.15l-0.06 -12.46c-29.09,0 -58.17,0 -87.26,0 -5.38,0 -5.65,-0.85 -9.85,-1.05 -16.1,-0.73 -31.24,3.74 -33.19,21.29 -0.63,5.71 0.25,10.7 3.16,15.48 0.34,0.56 0.76,1.08 1.02,1.7l-54.74 -0.01 0 -24.82 36 -0.04 0 -12.58 -50.47 -0.01 0 79.5 -19.98 0.02c-0.4,-0.1 -4.22,-6.26 -4.73,-7.08 -1.59,-2.54 -13.36,-20.49 -13.72,-21.43 2.17,-0.66 5.92,-2.89 7.76,-4.29 3.65,-2.77 6.8,-6.25 8.59,-11.42 2.97,-8.6 0.61,-20.11 -4.08,-25.44 -0.74,-0.83 -1.14,-1.4 -1.99,-2.13 -10.41,-8.88 -23.2,-7.8 -36.14,-7.8 -3.81,0 -12.66,-0.17 -15.85,0.02l0.09 92.16 14.42 -0.01 0 -37.49 14.62 -0.03 3.61 5.96c1.22,1.95 2.36,3.88 3.58,5.84l12.55 20.42c0.84,1.41 3.05,3.97 4.14,5.28l1.16 1.19c0.73,0.81 2.89,2.62 3.79,3.28 0.46,0.33 0.89,0.63 1.38,0.97 0.48,0.33 0.87,0.79 1.53,0.51l9.32 -4.97c1.82,-0.93 1.38,-0.91 3.8,-0.92l37.68 -0.03c6.16,0 12.63,-0.19 18.75,0.01 0.33,-1 0.13,-11.15 0.12,-13.06l-35.51 0c-0.62,-0.09 -0.21,-0.02 -0.42,-0.18l0.03 -28.78c7.03,-0.17 14.26,-0.01 21.3,-0.01l48.13 0c2.36,-0.01 2.26,0.27 4.16,1.1 6.76,2.91 16.38,5.96 18.3,13.64 0.74,2.95 0.23,6.64 -1.12,8.92 -4.29,7.23 -17.3,7.03 -24.65,5.37 -2.96,-0.68 -5.62,-1.44 -8.41,-2.33 -2.39,-0.76 -5.76,-2.14 -7.99,-2.6l0 13.89c6.37,2.84 15.69,4.74 23.69,4.58 11.85,-0.24 23.3,-3.29 29.8,-12.52 5.31,-7.55 4.59,-19.92 -0.76,-27.34 -0.54,-0.74 -1.01,-1.3 -1.55,-1.98 -2.28,-2.84 -6.64,-5.83 -10,-7.52 -7.78,-3.93 -22.56,-7.7 -25.42,-16.82 -1.32,-4.19 0.24,-8.49 2.43,-10.77 2.1,-2.19 5.73,-3.75 9.93,-4.17 6.69,-0.68 17.32,2.89 22.76,5.18l1.43 -4.16 38.27 0.03c0.28,1.1 0.09,37.63 0.09,39.81 0,6.63 0,13.25 0,19.88 0,3.53 -0.19,17.53 0.03,19.83l14.29 0z"/>
 </g>
</svg>
