<?xml version="1.0" encoding="UTF-8"?>
<!DOCTYPE svg PUBLIC "-//W3C//DTD SVG 1.1//EN" "http://www.w3.org/Graphics/SVG/1.1/DTD/svg11.dtd">
<!-- Creator: CorelDRAW -->
<svg xmlns="http://www.w3.org/2000/svg" xml:space="preserve" width="201px" height="201px" version="1.1" style="shape-rendering:geometricPrecision; text-rendering:geometricPrecision; image-rendering:optimizeQuality; fill-rule:evenodd; clip-rule:evenodd"
viewBox="0 0 201 201"
 xmlns:xlink="http://www.w3.org/1999/xlink"
 xmlns:xodm="http://www.corel.com/coreldraw/odm/2003">
 <defs>
  <style type="text/css">
   <![CDATA[
    .fil0 {fill:black;fill-rule:nonzero}
    .fil2 {fill:#336791;fill-rule:nonzero}
    .fil3 {fill:white;fill-rule:nonzero}
    .fil1 {fill:white;fill-rule:nonzero}
   ]]>
  </style>
 </defs>
 <g id="Camada_x0020_1">
  <metadata id="CorelCorpID_0Corel-Layer"/>
  <g>
   <path class="fil0" d="M136.09 119.16c1.04,-8.64 0.73,-9.91 7.16,-8.51l1.64 0.14c4.95,0.23 11.42,-0.79 15.22,-2.56 8.18,-3.8 13.03,-10.14 4.97,-8.47 -18.41,3.79 -19.68,-2.44 -19.68,-2.44 19.44,-28.84 27.57,-65.45 20.55,-74.41 -19.13,-24.45 -52.24,-12.89 -52.8,-12.59l-0.18 0.03c-3.63,-0.75 -7.7,-1.2 -12.28,-1.28 -8.33,-0.13 -14.65,2.19 -19.44,5.83 0,0 -59.08,-24.34 -56.33,30.6 0.58,11.69 16.75,88.45 36.04,65.27 7.05,-8.48 13.86,-15.65 13.86,-15.65 3.38,2.25 7.43,3.39 11.68,2.98l0.33 -0.28c-0.1,1.05 -0.06,2.08 0.13,3.3 -4.97,5.55 -3.5,6.53 -13.44,8.57 -10.05,2.08 -4.14,5.76 -0.29,6.73 4.67,1.17 15.48,2.82 22.79,-7.41l-0.29 1.17c1.95,1.56 1.82,11.21 2.09,18.1 0.28,6.89 0.74,13.32 2.14,17.12 1.41,3.79 3.07,13.56 16.12,10.76 10.91,-2.34 19.25,-5.7 20.01,-37l0 0zm0 0l0 0 0 0z"/>
  </g>
  <path class="fil1" d="M111.83 162.98c-5.77,0 -9.53,-2.24 -11.82,-4.39 -3.44,-3.26 -4.81,-7.45 -5.63,-9.95l-0.35 -1.05c-1.64,-4.44 -2.2,-10.83 -2.53,-19.06 -0.05,-1.23 -0.09,-2.51 -0.12,-3.86 -0.03,-0.98 -0.07,-2.22 -0.12,-3.52 -2.05,0.98 -4.24,1.68 -6.56,2.07 -4.07,0.7 -8.44,0.47 -13.01,-0.67 -3.22,-0.8 -6.56,-2.47 -8.47,-5.05 -5.55,4.87 -10.86,4.21 -13.74,3.25 -5.1,-1.7 -9.66,-6.47 -13.94,-14.6 -3.05,-5.78 -6.01,-13.32 -8.78,-22.4 -4.82,-15.81 -7.89,-32.46 -8.16,-37.93 -0.86,-17.12 3.75,-29.36 13.69,-36.38 15.68,-11.07 39.44,-4.56 48.11,-1.6 5.81,-3.51 12.66,-5.22 20.4,-5.1 4.16,0.07 8.11,0.44 11.79,1.09 3.83,-1.2 11.4,-2.93 20.07,-2.83 15.98,0.19 29.21,6.42 38.28,18 6.47,8.27 3.27,25.63 0.78,35.24 -3.49,13.52 -9.61,27.9 -17.13,40.42 2.04,0.01 5,-0.23 9.21,-1.1 8.29,-1.71 10.72,2.73 11.38,4.73 2.63,7.98 -8.83,14.02 -12.41,15.68 -4.58,2.13 -12.05,3.42 -18.17,3.14l-0.27 -0.01 -1.61 -0.15 -0.16 1.34 -0.15 1.31c-0.41,15.87 -2.68,25.91 -7.34,32.55 -4.89,6.96 -11.68,8.92 -17.66,10.2 -2.04,0.43 -3.9,0.63 -5.58,0.63l0 0zm-12.15 -57.74c3.73,2.98 4.06,8.59 4.35,19.08 0.03,1.31 0.07,2.55 0.11,3.71 0.15,3.5 0.48,11.7 1.76,15.17 0.18,0.49 0.34,0.99 0.51,1.51 1.44,4.39 2.15,6.59 8.34,5.26 5.2,-1.11 7.87,-2.11 9.97,-5.09 3.04,-4.33 4.74,-13.03 5.05,-25.88l6.32 0.15 -6.28 -0.75 0.18 -1.57c0.61,-5.16 1.04,-8.9 4.5,-11.37 2.77,-1.98 5.93,-1.79 8.44,-1.34 -2.76,-2.08 -3.53,-4.54 -3.73,-5.54l-0.53 -2.6 1.48 -2.2c8.54,-12.66 15.58,-28.23 19.32,-42.7 3.84,-14.88 2.67,-22.78 1.5,-24.27 -15.51,-19.82 -42.4,-11.64 -45.21,-10.71l-0.47 0.26 -2.38 0.44 -1.22 -0.25c-3.36,-0.7 -7.1,-1.08 -11.1,-1.15 -6.29,-0.1 -11.36,1.38 -15.52,4.54l-2.89 2.19 -3.35 -1.38c-7.15,-2.93 -28.17,-8.81 -39.26,-0.96 -6.15,4.36 -8.96,12.91 -8.33,25.4 0.2,4.12 3.01,19.73 7.62,34.87 6.39,20.92 12.2,27.87 14.62,28.68 0.42,0.14 1.52,-0.71 2.61,-2.02 7.1,-8.54 13.86,-15.66 14.14,-15.96l3.66 -3.85 4.43 2.94c1.78,1.19 3.75,1.86 5.77,1.99l10.56 -9.01 -1.53 15.61c-0.03,0.35 -0.05,0.83 0.09,1.71l0.46 2.96 -1.99 2.23 -0.23 0.26 5.8 2.68 2.43 -3.04 0 0z"/>
  <path class="fil2" d="M165.08 99.76c-18.41,3.8 -19.68,-2.44 -19.68,-2.44 19.44,-28.84 27.57,-65.45 20.56,-74.42 -19.14,-24.44 -52.25,-12.88 -52.81,-12.58l-0.18 0.03c-3.63,-0.75 -7.7,-1.2 -12.28,-1.27 -8.33,-0.14 -14.65,2.18 -19.44,5.81 0,0 -59.08,-24.33 -56.33,30.61 0.58,11.69 16.75,88.45 36.04,65.27 7.05,-8.48 13.86,-15.65 13.86,-15.65 3.38,2.25 7.43,3.39 11.68,2.98l0.33 -0.28c-0.1,1.05 -0.06,2.08 0.13,3.3 -4.97,5.56 -3.51,6.53 -13.44,8.57 -10.05,2.08 -4.15,5.76 -0.29,6.73 4.67,1.17 15.48,2.82 22.79,-7.4l-0.3 1.16c1.95,1.56 3.32,10.15 3.09,17.93 -0.23,7.78 -0.38,13.12 1.15,17.29 1.54,4.17 3.07,13.56 16.12,10.76 10.91,-2.33 16.56,-8.39 17.35,-18.5 0.56,-7.18 1.82,-6.12 1.9,-12.55l1.02 -3.04c1.16,-9.74 0.18,-12.88 6.91,-11.42l1.63 0.14c4.95,0.23 11.42,-0.79 15.22,-2.56 8.18,-3.8 13.04,-10.14 4.97,-8.47l0 0z"/>
  <path class="fil3" d="M112.49 159.08c-10.88,0 -14.33,-8.62 -15.74,-12.15 -2.06,-5.16 -2.51,-25.21 -2.05,-41.65 0.03,-1.16 1,-2.08 2.17,-2.05 1.16,0.03 2.08,1.01 2.05,2.17 -0.53,18.96 0.22,36.14 1.75,39.96 2.38,5.97 6,11.18 16.23,8.99 9.71,-2.08 13.34,-5.76 14.96,-15.15 1.24,-7.2 3.7,-27.7 4,-31.74 0.09,-1.16 1.1,-2.04 2.26,-1.95 1.16,0.09 2.04,1.1 1.95,2.26 -0.32,4.21 -2.76,24.67 -4.05,32.15 -1.92,11.09 -6.86,16.12 -18.24,18.56 -1.93,0.41 -3.69,0.59 -5.29,0.59l0 0.01zm-59.01 -42.1c-1.04,0 -1.98,-0.19 -2.8,-0.46 -7.07,-2.36 -13.8,-13.87 -20.01,-34.23 -4.73,-15.49 -7.73,-31.66 -7.99,-36.91 -0.78,-15.58 3.23,-26.6 11.93,-32.76 17.19,-12.19 46.12,-0.58 47.34,-0.08 1.08,0.44 1.6,1.67 1.16,2.75 -0.44,1.08 -1.67,1.59 -2.75,1.15l0 0c-0.28,-0.11 -28.02,-11.22 -43.32,-0.37 -7.44,5.27 -10.85,15.06 -10.15,29.1 0.22,4.43 3.02,20.21 7.81,35.89 5.55,18.17 11.86,29.64 17.31,31.46 0.86,0.28 3.47,1.15 7.2,-3.33 7.01,-8.44 13.45,-15.17 13.51,-15.24 0.81,-0.84 2.15,-0.87 2.99,-0.06 0.84,0.8 0.87,2.14 0.06,2.98 -0.06,0.07 -6.41,6.7 -13.32,15.02 -3.28,3.93 -6.42,5.09 -8.97,5.09l0 0zm91.79 -17.78c-0.4,0 -0.81,-0.11 -1.17,-0.36 -0.97,-0.65 -1.23,-1.96 -0.58,-2.93 19.65,-29.16 26.55,-64.39 20.64,-71.94 -7.43,-9.5 -17.93,-14.46 -31.21,-14.74 -9.82,-0.22 -17.64,2.29 -18.91,2.73l-0.32 0.13c-1.28,0.4 -2.27,-0.3 -2.64,-1.12 -0.44,-0.98 -0.08,-2.13 0.83,-2.68l0.57 -0.23 -0.03 0 0.03 -0.01c2.17,-0.79 10.1,-3.17 19.93,-3.06 14.68,0.16 26.81,5.82 35.08,16.38 3.91,5 3.91,16.51 0.02,31.58 -3.97,15.37 -11.44,31.89 -20.49,45.32 -0.4,0.61 -1.07,0.93 -1.75,0.93l0 0zm1 13.5c-3.35,0 -6.36,-0.47 -8.16,-1.55 -1.85,-1.11 -2.2,-2.62 -2.25,-3.42 -0.51,-8.87 4.39,-10.41 6.89,-11.12 -0.35,-0.52 -0.85,-1.14 -1.36,-1.78 -1.45,-1.82 -3.45,-4.31 -4.98,-8.03 -0.24,-0.59 -1,-1.94 -1.87,-3.51 -4.73,-8.48 -14.58,-26.14 -8.25,-35.18 2.92,-4.19 8.75,-5.83 17.34,-4.91 -2.53,-7.7 -14.56,-31.78 -43.1,-32.25 -8.59,-0.14 -15.63,2.5 -20.92,7.84 -11.85,11.97 -11.42,33.61 -11.42,33.83 0.03,1.16 -0.89,2.13 -2.05,2.16 -1.17,0.04 -2.13,-0.89 -2.16,-2.05 -0.03,-0.96 -0.47,-23.68 12.63,-36.91 6.13,-6.19 14.2,-9.25 23.98,-9.09 18.27,0.3 30.03,9.59 36.67,17.32 7.24,8.44 10.8,17.74 11.09,20.84 0.22,2.31 -1.44,2.77 -1.77,2.84l-0.76 0.02c-8.43,-1.35 -13.84,-0.42 -16.08,2.78 -4.81,6.87 4.51,23.57 8.48,30.71 1.02,1.82 1.75,3.13 2.09,3.95 1.3,3.16 3.01,5.29 4.38,7 1.2,1.51 2.24,2.81 2.62,4.34 0.17,0.31 2.63,3.94 17.21,0.93 3.66,-0.75 5.85,-0.11 6.52,1.92 1.32,3.99 -6.07,8.64 -10.17,10.54 -3.67,1.7 -9.53,2.78 -14.6,2.78zm-6.2 -5.31c0.46,0.46 2.77,1.27 7.57,1.06 4.26,-0.18 8.76,-1.11 11.46,-2.36 3.45,-1.6 5.75,-3.39 6.94,-4.61l-0.66 0.12c-9.33,1.92 -15.92,1.67 -19.61,-0.77 -0.26,-0.17 -0.5,-0.35 -0.71,-0.53 -0.4,0.16 -0.77,0.26 -1.03,0.34 -2.09,0.59 -4.25,1.19 -3.96,6.75l0 0zm-60.24 11.78c-2.32,0 -4.75,-0.31 -7.24,-0.94 -2.58,-0.64 -6.93,-2.59 -6.87,-5.77 0.08,-3.59 5.28,-4.66 7.24,-5.06 7.08,-1.46 7.54,-2.04 9.76,-4.85 0.64,-0.82 1.45,-1.84 2.54,-3.06 1.62,-1.82 3.4,-2.74 5.28,-2.74 1.3,0 2.38,0.44 3.08,0.73 2.26,0.94 4.15,3.2 4.92,5.91 0.7,2.44 0.37,4.79 -0.94,6.62 -4.28,5.99 -10.42,9.16 -17.77,9.16l0 0zm-9.55 -6.53c0.64,0.49 1.91,1.14 3.33,1.5 2.16,0.54 4.25,0.81 6.22,0.81 6.01,0 10.83,-2.49 14.34,-7.39 0.73,-1.03 0.51,-2.32 0.32,-3.01 -0.41,-1.43 -1.43,-2.73 -2.48,-3.17 -0.57,-0.24 -1.04,-0.42 -1.47,-0.42 -0.24,0 -0.94,0 -2.14,1.34 -1.01,1.12 -1.73,2.04 -2.37,2.86 -2.76,3.49 -4.02,4.68 -12.21,6.37 -2,0.41 -3.03,0.83 -3.54,1.11l0 0zm16.22 -9.73c-1.02,0 -1.92,-0.75 -2.08,-1.79 -0.06,-0.35 -0.09,-0.71 -0.11,-1.06 -5.37,-0.1 -10.55,-2.41 -14.49,-6.51 -4.97,-5.2 -7.24,-12.39 -6.21,-19.74 1.11,-7.98 0.7,-15.02 0.47,-18.81 -0.06,-1.05 -0.1,-1.81 -0.1,-2.34 0,-0.66 0.02,-2.44 5.93,-5.44 2.11,-1.06 6.33,-2.92 10.94,-3.4 7.64,-0.79 12.67,2.61 14.18,9.58 4.07,18.81 0.32,27.13 -2.41,33.21 -0.52,1.13 -1,2.2 -1.38,3.23l-0.34 0.91c-1.44,3.88 -2.69,7.22 -2.31,9.73 0.18,1.15 -0.61,2.22 -1.76,2.4l-0.33 0.03 0 0zm-18.29 -49.67l0.08 1.51c0.24,3.93 0.67,11.25 -0.5,19.65 -0.85,6.06 1,11.98 5.08,16.23 3.22,3.36 7.46,5.22 11.82,5.22l0.09 0c0.49,-2.06 1.3,-4.23 2.17,-6.57l0.34 -0.91c0.43,-1.17 0.94,-2.3 1.48,-3.49 2.63,-5.85 5.91,-13.14 2.13,-30.59 -0.75,-3.45 -2.56,-5.46 -5.54,-6.12 -6.12,-1.35 -15.23,3.25 -17.15,5.07l0 0zm12.73 -0.89c-0.1,0.74 1.37,2.74 3.29,3 1.91,0.27 3.55,-1.29 3.66,-2.03 0.1,-0.75 -1.37,-1.57 -3.29,-1.84 -1.92,-0.26 -3.56,0.12 -3.66,0.87zm3.73 3.74l-0.54 -0.04c-1.19,-0.17 -2.39,-0.92 -3.22,-2.01 -0.28,-0.38 -0.76,-1.13 -0.66,-1.79 0.13,-0.97 1.32,-1.55 3.17,-1.55 0.41,0 0.84,0.03 1.28,0.09 1.01,0.14 1.95,0.43 2.65,0.82 1.2,0.67 1.29,1.42 1.23,1.81 -0.15,1.07 -1.86,2.67 -3.91,2.67l0 0zm-3.03 -3.62c0.06,0.46 1.2,1.98 2.68,2.19l0.35 0.02c1.37,0 2.39,-1.08 2.51,-1.43 -0.13,-0.24 -1.01,-0.84 -2.68,-1.07 -0.37,-0.05 -0.73,-0.08 -1.08,-0.08 -1.07,0 -1.65,0.24 -1.78,0.37l0 0zm57.65 -1.64c0.11,0.74 -1.36,2.74 -3.28,3 -1.92,0.27 -3.56,-1.29 -3.66,-2.03 -0.11,-0.75 1.37,-1.57 3.28,-1.84 1.92,-0.27 3.56,0.13 3.66,0.87zm-3.72 3.38c-1.85,0 -3.44,-1.43 -3.57,-2.36 -0.15,-1.12 1.69,-1.97 3.59,-2.23 0.41,-0.06 0.83,-0.09 1.22,-0.09 1.64,0 2.72,0.48 2.83,1.25 0.07,0.5 -0.31,1.28 -0.97,1.97 -0.44,0.46 -1.36,1.26 -2.61,1.43l-0.49 0.03zm1.24 -3.98c-0.36,0 -0.74,0.03 -1.13,0.08 -1.91,0.26 -3.04,1.03 -2.99,1.44 0.07,0.45 1.28,1.76 2.87,1.76l0.4 -0.03c1.04,-0.14 1.82,-0.82 2.19,-1.21 0.59,-0.62 0.82,-1.2 0.79,-1.4 -0.03,-0.25 -0.74,-0.64 -2.13,-0.64l0 0zm5.25 43.42c-0.41,0 -0.82,-0.11 -1.18,-0.35 -0.96,-0.65 -1.22,-1.96 -0.58,-2.93 4.5,-6.71 3.67,-13.55 2.88,-20.17 -0.34,-2.82 -0.69,-5.73 -0.6,-8.53 0.09,-2.88 0.46,-5.25 0.81,-7.55 0.42,-2.72 0.82,-5.29 0.65,-8.34 -0.06,-1.17 0.83,-2.16 2,-2.22 1.16,-0.07 2.15,0.83 2.22,1.99 0.18,3.49 -0.26,6.4 -0.7,9.21 -0.33,2.17 -0.68,4.42 -0.76,7.04 -0.08,2.48 0.23,5.11 0.57,7.9 0.84,7.03 1.8,15.01 -3.56,23.01 -0.41,0.61 -1.07,0.94 -1.75,0.94l0 0z"/>
  <path class="fil1" d="M-0.4 163.66c1.79,-0.3 4.14,-0.56 7.13,-0.56 3.67,0 6.36,0.85 8.06,2.39 1.58,1.37 2.52,3.46 2.52,6.02 0,2.6 -0.77,4.65 -2.22,6.15 -1.96,2.09 -5.16,3.15 -8.79,3.15 -1.11,0 -2.14,-0.04 -2.99,-0.25l0 11.52 -3.71 0 0 -28.42zm3.71 13.87c0.81,0.21 1.84,0.3 3.08,0.3 4.47,0 7.21,-2.18 7.21,-6.15 0,-3.8 -2.69,-5.64 -6.79,-5.64 -1.62,0 -2.86,0.13 -3.5,0.3l0 11.19zm36.49 4.05c0,7.64 -5.29,10.97 -10.28,10.97 -5.6,0 -9.91,-4.1 -9.91,-10.63 0,-6.91 4.53,-10.97 10.25,-10.97 5.93,0 9.94,4.31 9.94,10.63zm-16.39 0.21c0,4.53 2.61,7.94 6.28,7.94 3.58,0 6.27,-3.37 6.27,-8.02 0,-3.5 -1.75,-7.94 -6.19,-7.94 -4.44,0 -6.36,4.1 -6.36,8.02zm20.62 6.45c1.11,0.72 3.07,1.49 4.95,1.49 2.73,0 4.01,-1.36 4.01,-3.07 0,-1.79 -1.07,-2.77 -3.84,-3.8 -3.71,-1.32 -5.46,-3.37 -5.46,-5.85 0,-3.32 2.68,-6.06 7.12,-6.06 2.09,0 3.93,0.6 5.08,1.29l-0.94 2.73c-0.81,-0.52 -2.3,-1.2 -4.22,-1.2 -2.22,0 -3.46,1.28 -3.46,2.82 0,1.71 1.24,2.47 3.93,3.5 3.59,1.36 5.42,3.16 5.42,6.23 0,3.63 -2.82,6.19 -7.72,6.19 -2.27,0 -4.36,-0.56 -5.81,-1.41l0.94 -2.86 0 0zm21.94 -22.75l0 5.93 5.37 0 0 2.86 -5.37 0 0 11.14c0,2.56 0.72,4.01 2.81,4.01 0.98,0 1.71,-0.13 2.18,-0.25l0.17 2.81c-0.72,0.3 -1.88,0.51 -3.33,0.51 -1.75,0 -3.16,-0.55 -4.06,-1.57 -1.06,-1.11 -1.45,-2.95 -1.45,-5.38l0 -11.27 -3.2 0 0 -2.86 3.2 0 0 -4.95 3.68 -0.98zm27.14 5.93c-0.09,1.5 -0.17,3.16 -0.17,5.68l0 11.99c0,4.74 -0.94,7.64 -2.95,9.44 -2,1.87 -4.9,2.47 -7.51,2.47 -2.47,0 -5.2,-0.6 -6.87,-1.71l0.94 -2.86c1.36,0.86 3.5,1.63 6.06,1.63 3.84,0 6.66,-2.01 6.66,-7.22l0 -2.3 -0.09 0c-1.15,1.92 -3.37,3.46 -6.57,3.46 -5.12,0 -8.79,-4.36 -8.79,-10.08 0,-7 4.56,-10.97 9.3,-10.97 3.59,0 5.55,1.88 6.45,3.59l0.08 0 0.17 -3.12 3.29 0zm-3.88 8.15c0,-0.64 -0.05,-1.19 -0.22,-1.7 -0.68,-2.18 -2.52,-3.97 -5.25,-3.97 -3.58,0 -6.14,3.03 -6.14,7.81 0,4.05 2.05,7.42 6.1,7.42 2.31,0 4.4,-1.45 5.21,-3.84 0.21,-0.64 0.3,-1.36 0.3,-2l0 -3.72 0 0zm9.68 -1.7c0,-2.44 -0.04,-4.53 -0.17,-6.45l3.29 0 0.13 4.06 0.17 0c0.93,-2.78 3.2,-4.53 5.71,-4.53 0.43,0 0.73,0.05 1.07,0.13l0 3.54c-0.38,-0.08 -0.77,-0.12 -1.28,-0.12 -2.64,0 -4.52,2 -5.03,4.82 -0.09,0.51 -0.18,1.11 -0.18,1.75l0 11.01 -3.71 0 0 -14.21zm15.62 4.56c0.09,5.08 3.33,7.17 7.09,7.17 2.69,0 4.31,-0.47 5.72,-1.06l0.64 2.69c-1.33,0.59 -3.59,1.28 -6.87,1.28 -6.36,0 -10.16,-4.19 -10.16,-10.42 0,-6.23 3.67,-11.14 9.69,-11.14 6.74,0 8.53,5.94 8.53,9.73 0,0.77 -0.08,1.37 -0.13,1.75l-14.51 0 0 0zm11.02 -2.68c0.04,-2.39 -0.99,-6.11 -5.21,-6.11 -3.8,0 -5.46,3.5 -5.77,6.11l10.98 0z"/>
  <path class="fil2" d="M133.44 187.56c1.66,1.02 4.1,1.87 6.66,1.87 3.8,0 6.02,-2 6.02,-4.9 0,-2.69 -1.54,-4.23 -5.42,-5.72 -4.7,-1.67 -7.6,-4.1 -7.6,-8.16 0,-4.48 3.71,-7.8 9.3,-7.8 2.95,0 5.08,0.68 6.36,1.4l-1.02 3.03c-0.94,-0.51 -2.86,-1.36 -5.47,-1.36 -3.92,0 -5.42,2.35 -5.42,4.31 0,2.69 1.75,4.01 5.72,5.55 4.87,1.88 7.34,4.22 7.34,8.45 0,4.44 -3.28,8.28 -10.07,8.28 -2.77,0 -5.8,-0.81 -7.34,-1.84l0.94 -3.11 0 0zm45.28 8.75c-3.88,-1.03 -7.68,-2.18 -11.01,-3.33 -0.6,-0.22 -1.19,-0.43 -1.75,-0.43 -6.83,-0.26 -12.67,-5.29 -12.67,-14.55 0,-9.22 5.63,-15.16 13.4,-15.16 7.81,0 12.89,6.06 12.89,14.56 0,7.38 -3.42,12.12 -8.2,13.78l0 0.17c2.86,0.73 5.98,1.41 8.41,1.84l-1.07 3.12 0 0zm-3.07 -18.74c0,-5.76 -2.99,-11.7 -9.09,-11.7 -6.28,0 -9.35,5.81 -9.31,12.04 -0.04,6.1 3.33,11.61 9.14,11.61 5.93,0 9.26,-5.38 9.26,-11.95l0 0zm8.75 -14.26l3.71 0 0 25.65 12.29 0 0 3.12 -16 0 0 -28.77z"/>
 </g>
</svg>
